<svg id="구성_요소_37_4" data-name="구성 요소 37 – 4" xmlns="http://www.w3.org/2000/svg" width="30" height="30" viewBox="0 0 30 30">
  <g id="사각형_537" data-name="사각형 537" fill="none" stroke="#b0b0b0" stroke-width="1">
    <rect width="30" height="30" rx="3" stroke="none"/>
    <rect x="0.5" y="0.5" width="29" height="29" rx="2.5" fill="none"/>
  </g>
  <g id="그룹_944" data-name="그룹 944" transform="translate(-2029.939 9485.886)">
    <g id="calendar2-check" transform="translate(2035.007 -9481.026)">
      <path id="패스_289" data-name="패스 289" d="M19.126,18.183a.631.631,0,0,1,0,.893L15.343,22.86a.631.631,0,0,1-.893,0l-1.892-1.892a.631.631,0,1,1,.893-.893L14.9,21.521l3.337-3.338a.631.631,0,0,1,.893,0Z" transform="translate(-5.493 -7.98)" fill="#3c3c3c" fill-rule="evenodd"/>
      <path id="패스_290" data-name="패스 290" d="M17.564,3.5H2.509A1.254,1.254,0,0,0,1.255,4.758v13.8a1.254,1.254,0,0,0,1.255,1.254H17.564a1.254,1.254,0,0,0,1.255-1.254V4.758A1.254,1.254,0,0,0,17.564,3.5ZM2.509,2.25A2.509,2.509,0,0,0,0,4.758v13.8a2.509,2.509,0,0,0,2.509,2.508H17.564a2.509,2.509,0,0,0,2.509-2.508V4.758A2.509,2.509,0,0,0,17.564,2.25Z" transform="translate(0 -0.989)" fill="#3c3c3c" fill-rule="evenodd"/>
      <path id="패스_291" data-name="패스 291" d="M7.375,0A.628.628,0,0,1,8,.631v.631a.625.625,0,1,1-1.251,0V.631A.628.628,0,0,1,7.375,0ZM18.631,0a.628.628,0,0,1,.625.631v.631a.625.625,0,1,1-1.251,0V.631A.628.628,0,0,1,18.631,0Z" transform="translate(-2.967)" fill="#3c3c3c" fill-rule="evenodd"/>
      <path id="패스_292" data-name="패스 292" d="M5.625,8.506a.628.628,0,0,1,.626-.631H18.767a.628.628,0,0,1,.626.631V9.767a.628.628,0,0,1-.626.631H6.251a.628.628,0,0,1-.626-.631Z" transform="translate(-2.472 -3.487)" fill="#3c3c3c"/>
    </g>
    <rect id="사각형_1523" data-name="사각형 1523" width="24" height="24" transform="translate(2032.939 -9482.886)" fill="none" opacity="0.5"/>
  </g>
</svg>
