<svg id="그룹_1504" data-name="그룹 1504" xmlns="http://www.w3.org/2000/svg" width="24" height="24" viewBox="0 0 24 24">
  <path id="패스_463" data-name="패스 463" d="M.185.2A.607.607,0,0,1,.632,0a.607.607,0,0,1,.447.2L8.648,8.4a.724.724,0,0,1,0,.967l-7.569,8.2a.6.6,0,0,1-.893,0,.725.725,0,0,1,0-.967L7.309,8.883.185,1.168A.713.713,0,0,1,0,.684.713.713,0,0,1,.185.2Z" transform="translate(20.883 7.584) rotate(90)" fill="#3c3c3c" fill-rule="evenodd"/>
  <rect id="사각형_3" data-name="사각형 3" width="24" height="24" fill="none" opacity="0.5"/>
</svg>
