<svg xmlns="http://www.w3.org/2000/svg" width="24" height="24" viewBox="0 0 24 24">
  <g id="그룹_836" data-name="그룹 836" transform="translate(734 9595)">
    <g id="arrow-left" transform="translate(-737.498 -9599.541)">
      <path id="패스_555" data-name="패스 555" d="M11.136,10.393a.959.959,0,0,1,0,1.3l-4.557,4.85,4.558,4.851a.96.96,0,0,1,0,1.3.826.826,0,0,1-1.219,0l-5.166-5.5a.959.959,0,0,1,0-1.3l5.166-5.5a.825.825,0,0,1,1.219,0Z" transform="translate(0)" fill="#1c1c1c" fill-rule="evenodd"/>
      <path id="패스_556" data-name="패스 556" d="M5.625,17.736a.891.891,0,0,1,.919-.861h19.3a.863.863,0,1,1,0,1.722H6.544A.891.891,0,0,1,5.625,17.736Z" transform="translate(-0.264 -1.195)" fill="#1c1c1c" fill-rule="evenodd"/>
    </g>
    <rect id="사각형_1123" data-name="사각형 1123" width="24" height="24" transform="translate(-734 -9595)" fill="none" opacity="0.5"/>
  </g>
</svg>
