<svg xmlns="http://www.w3.org/2000/svg" width="24" height="24" viewBox="0 0 24 24">
  <g id="그룹_947" data-name="그룹 947" transform="translate(23.675 0.325) rotate(90)">
    <g id="사각형_537" data-name="사각형 537" transform="translate(-0.325 -0.325)" fill="none" stroke="#b0b0b0" stroke-width="1">
      <rect width="24" height="24" rx="3" stroke="none"/>
      <rect x="0.5" y="0.5" width="23" height="23" rx="2.5" fill="none"/>
    </g>
    <g id="그룹_529" data-name="그룹 529" transform="translate(3.946 3.946)">
      <g id="chevron-left" transform="translate(4.378 1.505)">
        <path id="패스_467" data-name="패스 467" d="M10.264,3.514a.479.479,0,0,0,0,.678L15.67,9.6,10.264,15a.479.479,0,0,0,.678.678l5.744-5.744a.479.479,0,0,0,0-.678L10.942,3.514a.479.479,0,0,0-.678,0Z" transform="translate(-10.123 -3.373)" fill="#3c3c3c" fill-rule="evenodd"/>
      </g>
      <rect id="사각형_1019" data-name="사각형 1019" width="16" height="16" transform="translate(-0.271 -0.271)" fill="none" opacity="0.5"/>
    </g>
  </g>
</svg>
