<svg xmlns="http://www.w3.org/2000/svg" xmlns:xlink="http://www.w3.org/1999/xlink" width="66" height="66" viewBox="0 0 66 66">
  <defs>
    <filter id="타원_107" x="0" y="0" width="66" height="66" filterUnits="userSpaceOnUse">
      <feOffset dy="5" input="SourceAlpha"/>
      <feGaussianBlur stdDeviation="3" result="blur"/>
      <feFlood flood-opacity="0.302"/>
      <feComposite operator="in" in2="blur"/>
      <feComposite in="SourceGraphic"/>
    </filter>
  </defs>
  <g id="그룹_1016" data-name="그룹 1016" transform="translate(1249 7200)">
    <g transform="matrix(1, 0, 0, 1, -1249, -7200)" filter="url(#타원_107)">
      <circle id="타원_107-2" data-name="타원 107" cx="24" cy="24" r="24" transform="translate(9 4)" fill="#3c3c3c"/>
    </g>
    <g id="그룹_1015" data-name="그룹 1015" transform="translate(-10799 -6450) rotate(90)">
      <g id="arrow-left" transform="translate(-737.498 -9599.541)">
        <path id="패스_555" data-name="패스 555" d="M11.136,10.393a.959.959,0,0,1,0,1.3l-4.557,4.85,4.558,4.851a.96.96,0,0,1,0,1.3.826.826,0,0,1-1.219,0l-5.166-5.5a.959.959,0,0,1,0-1.3l5.166-5.5a.825.825,0,0,1,1.219,0Z" transform="translate(0)" fill="#fff" fill-rule="evenodd"/>
        <path id="패스_556" data-name="패스 556" d="M5.625,17.736a.891.891,0,0,1,.919-.861h19.3a.863.863,0,1,1,0,1.722H6.544A.891.891,0,0,1,5.625,17.736Z" transform="translate(-0.264 -1.195)" fill="#fff" fill-rule="evenodd"/>
      </g>
      <rect id="사각형_1123" data-name="사각형 1123" width="24" height="24" transform="translate(-734 -9595)" fill="none" opacity="0.5"/>
    </g>
  </g>
</svg>
