<svg xmlns="http://www.w3.org/2000/svg" width="30" height="30" viewBox="0 0 30 30">
  <g id="그룹_1491" data-name="그룹 1491" transform="translate(-299 -2461)">
    <g id="사각형_1524" data-name="사각형 1524" transform="translate(299 2461)" fill="#fff" stroke="#b0b0b0" stroke-width="1">
      <rect width="30" height="30" rx="3" stroke="none"/>
      <rect x="0.5" y="0.5" width="29" height="29" rx="2.5" fill="none"/>
    </g>
    <g id="그룹_675" data-name="그룹 675" transform="translate(9592 -2109)">
      <g id="trash-line" transform="translate(-9290.682 4573)">
        <path id="패스_487" data-name="패스 487" d="M19.188,25.627H7.784A1.842,1.842,0,0,1,6,23.731V11.23H7.247v12.5a.593.593,0,0,0,.139.429.578.578,0,0,0,.4.2h11.4a.578.578,0,0,0,.4-.2.593.593,0,0,0,.139-.429V11.23h1.248v12.5A1.842,1.842,0,0,1,19.188,25.627Z" transform="translate(-0.735 -3.627)" fill="#3c3c3c"/>
        <path id="패스_488" data-name="패스 488" d="M20.738,8.265H4.625A.632.632,0,0,1,4.625,7H20.738a.632.632,0,0,1,0,1.265Z" transform="translate(0 -1.877)" fill="#3c3c3c"/>
        <path id="패스_489" data-name="패스 489" d="M21,13h1.265v9.484H21Z" transform="translate(-6.385 -4.196)" fill="#3c3c3c"/>
        <path id="패스_490" data-name="패스 490" d="M13,13h1.265v9.484H13Z" transform="translate(-3.38 -4.196)" fill="#3c3c3c"/>
        <path id="패스_491" data-name="패스 491" d="M19.323,4.441h-1.2V3.265H14.2V4.441H13V3.265A1.265,1.265,0,0,1,14.2,2h3.92a1.265,1.265,0,0,1,1.2,1.265Z" transform="translate(-3.412 0)" fill="#3c3c3c"/>
      </g>
      <rect id="사각형_1019" data-name="사각형 1019" width="24" height="24" transform="translate(-9290 4573)" fill="none" opacity="0.5"/>
    </g>
  </g>
</svg>
