<svg xmlns="http://www.w3.org/2000/svg" width="24" height="24" viewBox="0 0 24 24">
  <g id="그룹_2159" data-name="그룹 2159" transform="translate(-316 -1210)">
    <g id="사각형_1524" data-name="사각형 1524" transform="translate(316 1210)" fill="none" stroke="#dedede" stroke-width="1">
      <rect width="24" height="24" rx="3" stroke="none"/>
      <rect x="0.5" y="0.5" width="23" height="23" rx="2.5" fill="none"/>
    </g>
    <g id="그룹_2158" data-name="그룹 2158" transform="translate(-564 -1712)">
      <g id="trash-line" transform="translate(886.417 2927.569)">
        <path id="패스_487" data-name="패스 487" d="M14.481,20.489H7.147A1.184,1.184,0,0,1,6,19.269V11.23h.8v8.039a.382.382,0,0,0,.089.276.371.371,0,0,0,.256.131h7.334a.371.371,0,0,0,.256-.131.382.382,0,0,0,.089-.276V11.23h.8v8.039A1.184,1.184,0,0,1,14.481,20.489Z" transform="translate(-5.186 -7.627)" fill="#6d6d6d"/>
        <path id="패스_488" data-name="패스 488" d="M14.764,7.813H4.4A.407.407,0,0,1,4.4,7H14.764a.407.407,0,0,1,0,.813Z" transform="translate(-4 -4.992)" fill="#6d6d6d"/>
        <path id="패스_489" data-name="패스 489" d="M21,13h.813v6.1H21Z" transform="translate(-14.173 -8.624)" fill="#6d6d6d"/>
        <path id="패스_490" data-name="패스 490" d="M13,13h.813v6.1H13Z" transform="translate(-9.386 -8.624)" fill="#6d6d6d"/>
        <path id="패스_491" data-name="패스 491" d="M17.066,3.57h-.773V2.813H13.773V3.57H13V2.813A.813.813,0,0,1,13.773,2h2.521a.813.813,0,0,1,.773.813Z" transform="translate(-9.406 -2)" fill="#6d6d6d"/>
      </g>
      <rect id="사각형_1019" data-name="사각형 1019" width="16" height="16" transform="translate(884 2926)" fill="none" opacity="0.5"/>
    </g>
  </g>
</svg>
