<svg xmlns="http://www.w3.org/2000/svg" width="34" height="34" viewBox="0 0 34 34">
  <g id="그룹_2168" data-name="그룹 2168" transform="translate(-251 -498)">
    <g id="사각형_538" data-name="사각형 538" transform="translate(251 498)" fill="none" stroke="#d1d1d1" stroke-width="1">
      <rect width="34" height="34" rx="3" stroke="none"/>
      <rect x="0.5" y="0.5" width="33" height="33" rx="2.5" fill="none"/>
    </g>
    <g id="그룹_2017" data-name="그룹 2017" transform="translate(-1574 286)">
      <g id="upload" transform="translate(1832 221)">
        <path id="패스_4" data-name="패스 4" d="M.625,11.353a.625.625,0,0,1,.625.625v4.375A1.25,1.25,0,0,0,2.5,17.6h15a1.25,1.25,0,0,0,1.25-1.25V11.978a.625.625,0,1,1,1.25,0v4.375a2.5,2.5,0,0,1-2.5,2.5H2.5a2.5,2.5,0,0,1-2.5-2.5V11.978a.625.625,0,0,1,.625-.625ZM6.25,7.42a.625.625,0,0,0,.884,0L10,4.553l2.866,2.866a.625.625,0,1,0,.884-.883L10.442,3.228a.625.625,0,0,0-.885,0L6.25,6.536a.625.625,0,0,0,0,.885Z" transform="translate(0 -3.044)" fill="#626262" fill-rule="evenodd"/>
        <path id="패스_5" data-name="패스 5" d="M17.525,4.5a.65.65,0,0,1,.65.65V15.558a.65.65,0,0,1-1.3,0V5.15A.65.65,0,0,1,17.525,4.5Z" transform="translate(-7.525 -3.658)" fill="#626262" fill-rule="evenodd"/>
      </g>
      <rect id="사각형_66" data-name="사각형 66" width="24" height="24" transform="translate(1830 217)" fill="none"/>
    </g>
  </g>
</svg>
