<svg xmlns="http://www.w3.org/2000/svg" width="30" height="30" viewBox="0 0 30 30">
  <g id="그룹_875" data-name="그룹 875" transform="translate(1043 8808)">
    <g id="hdd-network" transform="translate(-1040 -8806.5)">
      <path id="패스_575" data-name="패스 575" d="M21,6H3A1.5,1.5,0,0,0,1.5,7.5V9A1.5,1.5,0,0,0,3,10.5H21A1.5,1.5,0,0,0,22.5,9V7.5A1.5,1.5,0,0,0,21,6ZM3,4.5a3,3,0,0,0-3,3V9a3,3,0,0,0,3,3H21a3,3,0,0,0,3-3V7.5a3,3,0,0,0-3-3Z" fill="#626262" fill-rule="evenodd"/>
      <path id="패스_576" data-name="패스 576" d="M9,9.75A.75.75,0,1,1,8.25,9,.75.75,0,0,1,9,9.75Zm-3,0A.75.75,0,1,1,5.25,9,.75.75,0,0,1,6,9.75Z" transform="translate(-1.5 -1.5)" fill="#626262"/>
      <path id="패스_577" data-name="패스 577" d="M11.25,20.25v-4.5h1.5v4.5A2.25,2.25,0,0,1,15,22.5h8.25a.75.75,0,0,1,0,1.5H15a2.25,2.25,0,0,1-2.25,2.25h-1.5A2.25,2.25,0,0,1,9,24H.75a.75.75,0,0,1,0-1.5H9A2.25,2.25,0,0,1,11.25,20.25Zm0,1.5a.75.75,0,0,0-.75.75V24a.75.75,0,0,0,.75.75h1.5A.75.75,0,0,0,13.5,24V22.5a.75.75,0,0,0-.75-.75Z" transform="translate(0 -3.75)" fill="#626262" fill-rule="evenodd"/>
    </g>
    <rect id="사각형_1122" data-name="사각형 1122" width="30" height="30" transform="translate(-1043 -8808)" fill="none" opacity="0.5"/>
  </g>
</svg>
