<svg xmlns="http://www.w3.org/2000/svg" width="30" height="30" viewBox="0 0 30 30">
  <g id="그룹_420" data-name="그룹 420" transform="translate(-1039 -365.416)">
    <g id="clipboard" transform="translate(1043.385 368.849)">
      <path id="패스_498" data-name="패스 498" d="M6.635,3.375H5.173A2.923,2.923,0,0,0,2.25,6.3V21.639a2.923,2.923,0,0,0,2.923,2.922H19.789a2.923,2.923,0,0,0,2.923-2.922V6.3a2.923,2.923,0,0,0-2.923-2.922H18.327V4.836h1.462A1.461,1.461,0,0,1,21.25,6.3V21.639A1.461,1.461,0,0,1,19.789,23.1H5.173a1.461,1.461,0,0,1-1.462-1.461V6.3A1.461,1.461,0,0,1,5.173,4.836H6.635Z" transform="translate(-2.25 -1.176)" fill="#626262" fill-rule="evenodd"/>
      <path id="패스_499" data-name="패스 499" d="M17.846,1.466h-4.4a.733.733,0,0,0-.733.733V3.664a.733.733,0,0,0,.733.733h4.4a.733.733,0,0,0,.733-.733V2.2A.733.733,0,0,0,17.846,1.466ZM13.449,0a2.2,2.2,0,0,0-2.2,2.2V3.664a2.2,2.2,0,0,0,2.2,2.2h4.4a2.2,2.2,0,0,0,2.2-2.2V2.2a2.2,2.2,0,0,0-2.2-2.2Z" transform="translate(-5.416)" fill="#626262" fill-rule="evenodd"/>
    </g>
    <rect id="사각형_1022" data-name="사각형 1022" width="30" height="30" transform="translate(1039 365.416)" fill="none" opacity="0.5"/>
  </g>
</svg>
