<svg xmlns="http://www.w3.org/2000/svg" width="36" height="36" viewBox="0 0 36 36">
  <g id="그룹_862" data-name="그룹 862" transform="translate(-196 -276)">
    <g id="그룹_861" data-name="그룹 861">
      <path id="패스_516" data-name="패스 516" d="M22.751,3.875H3.25A1.625,1.625,0,0,0,1.625,5.5V23.37A1.625,1.625,0,0,0,3.25,24.994h19.5a1.625,1.625,0,0,0,1.625-1.625V5.5A1.625,1.625,0,0,0,22.751,3.875ZM3.25,2.25A3.25,3.25,0,0,0,0,5.5V23.37a3.25,3.25,0,0,0,3.25,3.249h19.5A3.25,3.25,0,0,0,26,23.37V5.5a3.25,3.25,0,0,0-3.25-3.249Z" transform="translate(201 280.382)" fill="#1c1c1c" fill-rule="evenodd"/>
      <path id="패스_570" data-name="패스 570" d="M1.053,0H18.947A1.027,1.027,0,0,1,20,1a1.027,1.027,0,0,1-1.053,1H1.053A1.027,1.027,0,0,1,0,1,1.027,1.027,0,0,1,1.053,0Z" transform="translate(204 301)" fill="#1a8dff"/>
    </g>
    <g id="그룹_419" data-name="그룹 419" transform="translate(-633 -90.05)">
      <g id="__TEMP__SVG__" transform="translate(834 371.05)">
        <path id="패스_517" data-name="패스 517" d="M22.751,3.882H3.25A1.628,1.628,0,0,0,1.625,5.514V7.145H24.376V5.514A1.628,1.628,0,0,0,22.751,3.882ZM3.25,2.25A3.257,3.257,0,0,0,0,5.514V8.777H26V5.514a3.257,3.257,0,0,0-3.25-3.264Z" transform="translate(0 -0.618)" fill="#1c1c1c" fill-rule="evenodd"/>
        <path id="패스_518" data-name="패스 518" d="M7.56,0a.813.813,0,0,1,.81.816v.816a.811.811,0,1,1-1.621,0V.816A.813.813,0,0,1,7.56,0ZM22.149,0a.813.813,0,0,1,.81.816v.816a.811.811,0,1,1-1.621,0V.816A.813.813,0,0,1,22.149,0Z" transform="translate(-1.855 0)" fill="#1c1c1c" fill-rule="evenodd"/>
        <path id="패스_519" data-name="패스 519" d="M25.566,15.75H27.2a.816.816,0,0,1,.816.816V18.2a.816.816,0,0,1-.816.816H25.566a.816.816,0,0,1-.816-.816V16.566A.816.816,0,0,1,25.566,15.75Z" transform="translate(-6.885 -4.381)" fill="#1c1c1c"/>
      </g>
      <rect id="사각형_1019" data-name="사각형 1019" width="36" height="36" transform="translate(829 366.05)" fill="none" opacity="0.5"/>
    </g>
  </g>
</svg>
