<svg id="구성_요소_41_1" data-name="구성 요소 41 – 1" xmlns="http://www.w3.org/2000/svg" width="36" height="36" viewBox="0 0 36 36">
  <g id="calendar4" transform="translate(3.968 3.533)">
    <path id="패스_284" data-name="패스 284" d="M25.252,4.055H3.607A1.8,1.8,0,0,0,1.8,5.86V25.717a1.8,1.8,0,0,0,1.8,1.805H25.252a1.8,1.8,0,0,0,1.8-1.805V5.86A1.8,1.8,0,0,0,25.252,4.055ZM3.607,2.25A3.609,3.609,0,0,0,0,5.86V25.717a3.609,3.609,0,0,0,3.607,3.61H25.252a3.609,3.609,0,0,0,3.607-3.61V5.86a3.609,3.609,0,0,0-3.607-3.61Z" transform="translate(0 -0.469)" fill="#1c1c1c" fill-rule="evenodd"/>
    <path id="패스_285" data-name="패스 285" d="M25.252,4.031H3.607A1.793,1.793,0,0,0,1.8,5.812V7.593H27.055V5.812A1.793,1.793,0,0,0,25.252,4.031ZM3.607,2.25A3.585,3.585,0,0,0,0,5.812V9.375H28.859V5.812A3.585,3.585,0,0,0,25.252,2.25Z" transform="translate(0 -0.469)" fill="#1c1c1c" fill-rule="evenodd"/>
    <path id="패스_286" data-name="패스 286" d="M7.659,0a.9.9,0,0,1,.909.891v.891a.909.909,0,0,1-1.817,0V.891A.9.9,0,0,1,7.659,0ZM24.014,0a.9.9,0,0,1,.909.891v.891a.909.909,0,0,1-1.817,0V.891A.9.9,0,0,1,24.014,0Z" transform="translate(-1.407 0)" fill="#1c1c1c" fill-rule="evenodd"/>
  </g>
  <rect id="사각형_3" data-name="사각형 3" width="36" height="36" fill="none" opacity="0.5"/>
</svg>
