<svg id="구성_요소_40_1" data-name="구성 요소 40 – 1" xmlns="http://www.w3.org/2000/svg" width="36" height="36" viewBox="0 0 36 36">
  <path id="home" d="M16.735,2.459a1,1,0,0,0-1.24,0L1.125,13.67l1.24,1.58,1.76-1.38v12.38a2,2,0,0,0,2,2h20a2,2,0,0,0,2-2V13.88l1.76,1.37,1.24-1.57Zm1.39,23.79h-4v-8h4Zm2,0v-8a2,2,0,0,0-2-2h-4a2,2,0,0,0-2,2v8h-6V12.31l10-7.79,10,7.8v13.93Z" transform="translate(1.875 2.754)" fill="#1c1c1c"/>
  <rect id="사각형_1123" data-name="사각형 1123" width="36" height="36" fill="none" opacity="0.5"/>
</svg>
