<svg id="구성_요소_43_1" data-name="구성 요소 43 – 1" xmlns="http://www.w3.org/2000/svg" width="24" height="24" viewBox="0 0 24 24">
  <g id="그룹_40" data-name="그룹 40" transform="translate(3.128 2)">
    <path id="패스_70" data-name="패스 70" d="M28.641,75.267a.81.81,0,1,0-.878-1.36,8.87,8.87,0,1,0,9.764.148.806.806,0,1,0-.9,1.334,7.24,7.24,0,1,1-11.33,5.981A7.138,7.138,0,0,1,28.641,75.267Z" transform="translate(-23.658 -70.219)" fill="#1c1c1c"/>
    <path id="패스_71" data-name="패스 71" d="M194.448,12.026V.82a.82.82,0,0,0-1.64,0V12.026a.82.82,0,0,0,1.64,0Z" transform="translate(-184.756)" fill="#1c1c1c"/>
  </g>
  <rect id="사각형_1019" data-name="사각형 1019" width="24" height="24" fill="none" opacity="0.5"/>
</svg>
