<svg xmlns="http://www.w3.org/2000/svg" width="24" height="24" viewBox="0 0 24 24">
  <g id="그룹_2063" data-name="그룹 2063" transform="translate(-873 -97)">
    <g id="pen" transform="translate(872.752 96.943)">
      <path id="패스_642" data-name="패스 642" d="M8.933,21.051a1.42,1.42,0,0,1-.554.343l-4.259,1.42a1.42,1.42,0,0,1-1.8-1.8l1.42-4.259a1.42,1.42,0,0,1,.343-.555L15.15,5.139a2.84,2.84,0,0,1,4.015,0L20,5.971a2.84,2.84,0,0,1,0,4.015L8.933,21.051ZM5.089,17.207,16.153,6.143a1.42,1.42,0,0,1,2.007,0l.832.832a1.42,1.42,0,0,1,0,2.007L7.929,20.047l-4.259,1.42Z" transform="translate(0 -0.83)" fill="#1c1c1c" fill-rule="evenodd"/>
      <path id="패스_643" data-name="패스 643" d="M18.141,4.809a.71.71,0,0,0-1.005,0L12.462,9.487a.711.711,0,1,1-1.005-1.005l4.677-4.676a2.13,2.13,0,0,1,3.013,0l.416.415a.71.71,0,1,1-1,1.005l-.416-.416Z" transform="translate(-3.321 -0.415)" fill="#1c1c1c" fill-rule="evenodd"/>
      <path id="패스_644" data-name="패스 644" d="M28.836,2.473a1.42,1.42,0,0,1,2.007,0l.043.043a1.42,1.42,0,0,1,.043,1.964l-1.8,1.959L27,4.309Z" transform="translate(-9.133)" fill="#1c1c1c"/>
    </g>
    <rect id="사각형_1122" data-name="사각형 1122" width="24" height="24" transform="translate(873 97)" fill="none" opacity="0.5"/>
  </g>
</svg>
