<svg xmlns="http://www.w3.org/2000/svg" width="82" height="30" viewBox="0 0 82 30">
  <g id="그룹_870" data-name="그룹 870" transform="translate(8351 -10183)">
    <rect id="사각형_537" data-name="사각형 537" width="82" height="30" rx="3" transform="translate(-8351 10183)" fill="#565656"/>
    <text id="검색" transform="translate(-8311 10204)" fill="#fff" font-size="14" font-family="NotoSansKR-Medium, Noto Sans KR" font-weight="500"><tspan x="0" y="0">검색</tspan></text>
    <g id="그룹_869" data-name="그룹 869" transform="translate(85 -15)">
      <g id="search" transform="translate(-8424 10205)">
        <path id="패스_489" data-name="패스 489" d="M23.13,23.128a1,1,0,0,1,1.415,0l3.85,3.85a1,1,0,1,1-1.414,1.415l-3.85-3.85a1,1,0,0,1,0-1.415Z" transform="translate(-12.688 -12.686)" fill="#fff" fill-rule="evenodd"/>
        <path id="패스_490" data-name="패스 490" d="M6.5,12A5.5,5.5,0,1,0,1,6.5,5.5,5.5,0,0,0,6.5,12ZM13,6.5A6.5,6.5,0,1,1,6.5,0,6.5,6.5,0,0,1,13,6.5Z" fill="#fff" fill-rule="evenodd"/>
      </g>
      <rect id="사각형_3" data-name="사각형 3" width="20" height="20" transform="translate(-8426 10203)" fill="none" opacity="0.5"/>
    </g>
  </g>
</svg>
