<svg xmlns="http://www.w3.org/2000/svg" width="30" height="30" viewBox="0 0 30 30">
  <g id="그룹_1298" data-name="그룹 1298" transform="translate(9575 -587)">
    <g id="ios-information-circle-outline" transform="translate(-9575.375 586.625)">
      <path id="패스_580" data-name="패스 580" d="M16.552,11.857a1.189,1.189,0,1,1,1.182,1.154A1.155,1.155,0,0,1,16.552,11.857Zm.08,2.059h2.2V22.23h-2.2Z" transform="translate(-2.365 -1.316)" fill="#626262"/>
      <path id="패스_581" data-name="패스 581" d="M15.375,4.991a10.379,10.379,0,1,1-7.344,3.04,10.319,10.319,0,0,1,7.344-3.04m0-1.616a12,12,0,1,0,12,12A12,12,0,0,0,15.375,3.375Z" fill="#626262"/>
    </g>
    <rect id="사각형_3" data-name="사각형 3" width="30" height="30" transform="translate(-9575 587)" fill="none" opacity="0.5"/>
  </g>
</svg>
