<svg id="x-circle" xmlns="http://www.w3.org/2000/svg" width="18" height="18" viewBox="0 0 18 18">
  <path id="패스_427" data-name="패스 427" d="M9,16.875A7.875,7.875,0,1,0,1.125,9,7.875,7.875,0,0,0,9,16.875ZM9,18A9,9,0,1,0,0,9,9,9,0,0,0,9,18Z" fill="#dc0a0a" fill-rule="evenodd"/>
  <path id="패스_428" data-name="패스 428" d="M17.835,9.164a.562.562,0,0,1,0,.8L9.96,17.835a.563.563,0,0,1-.8-.8l7.875-7.875a.563.563,0,0,1,.8,0Z" transform="translate(-4.499 -4.499)" fill="#dc0a0a" fill-rule="evenodd"/>
  <path id="패스_429" data-name="패스 429" d="M9.164,9.164a.563.563,0,0,0,0,.8l7.875,7.875a.563.563,0,0,0,.8-.8L9.96,9.164a.563.563,0,0,0-.8,0Z" transform="translate(-4.499 -4.499)" fill="#dc0a0a" fill-rule="evenodd"/>
</svg>
