<svg xmlns="http://www.w3.org/2000/svg" width="28" height="26" viewBox="0 0 28 26">
  <g id="그룹_2121" data-name="그룹 2121" transform="translate(7085 -9209)">
    <g id="사각형_1964" data-name="사각형 1964" transform="translate(-7057 9235) rotate(180)" fill="#fff" stroke="#b0b0b0" stroke-width="1">
      <path d="M3,0H25a3,3,0,0,1,3,3V26a0,0,0,0,1,0,0H0a0,0,0,0,1,0,0V3A3,3,0,0,1,3,0Z" stroke="none"/>
      <path d="M3,.5H25A2.5,2.5,0,0,1,27.5,3V25.5a0,0,0,0,1,0,0H.5a0,0,0,0,1,0,0V3A2.5,2.5,0,0,1,3,.5Z" fill="none"/>
    </g>
    <path id="다각형_25" data-name="다각형 25" d="M5.168,1.248a1,1,0,0,1,1.664,0l4.131,6.2A1,1,0,0,1,10.131,9H1.869a1,1,0,0,1-.832-1.555Z" transform="translate(-7065 9227) rotate(180)" fill="#1c1c1c"/>
  </g>
</svg>
