<svg xmlns="http://www.w3.org/2000/svg" width="20" height="20" viewBox="0 0 20 20">
  <g id="그룹_1674" data-name="그룹 1674" transform="translate(-3137 -785)">
    <path id="paperclip" d="M6.43,19.443a5.2,5.2,0,0,1-3.679-8.881l7.521-7.521.866.866L3.617,11.427a3.979,3.979,0,1,0,5.627,5.626L17.2,9.1a2.755,2.755,0,1,0-3.9-3.9L5.348,13.158a1.53,1.53,0,1,0,2.164,2.164L14.384,8.45l.866.866L8.378,16.188a2.754,2.754,0,1,1-3.9-3.9l7.953-7.954a3.978,3.978,0,1,1,5.626,5.626l-7.953,7.954A5.168,5.168,0,0,1,6.43,19.443Z" transform="translate(3136.772 783.758)" fill="#626262"/>
    <rect id="사각형_1023" data-name="사각형 1023" width="20" height="20" transform="translate(3137 785)" fill="none" opacity="0.5"/>
  </g>
</svg>
