<svg xmlns="http://www.w3.org/2000/svg" width="24" height="24" viewBox="0 0 24 24">
  <g id="그룹_355" data-name="그룹 355" transform="translate(-828 -271.86)">
    <g id="calendar4" transform="translate(830.625 274.386)">
      <path id="패스_284" data-name="패스 284" d="M16.7,3.444H2.386A1.194,1.194,0,0,0,1.193,4.638V17.772a1.194,1.194,0,0,0,1.193,1.194H16.7A1.194,1.194,0,0,0,17.9,17.772V4.638A1.194,1.194,0,0,0,16.7,3.444ZM2.386,2.25A2.387,2.387,0,0,0,0,4.638V17.772A2.387,2.387,0,0,0,2.386,20.16H16.7a2.387,2.387,0,0,0,2.386-2.388V4.638A2.387,2.387,0,0,0,16.7,2.25Z" transform="translate(0 -1.072)" fill="#676767" fill-rule="evenodd"/>
      <path id="패스_285" data-name="패스 285" d="M16.7,3.428H2.386A1.186,1.186,0,0,0,1.193,4.606V5.784H17.9V4.606A1.186,1.186,0,0,0,16.7,3.428ZM2.386,2.25A2.371,2.371,0,0,0,0,4.606V6.962H19.088V4.606A2.371,2.371,0,0,0,16.7,2.25Z" transform="translate(0 -1.072)" fill="#676767" fill-rule="evenodd"/>
      <path id="패스_286" data-name="패스 286" d="M7.351,0a.6.6,0,0,1,.6.589v.589a.6.6,0,0,1-1.2,0V.589A.6.6,0,0,1,7.351,0ZM18.169,0a.6.6,0,0,1,.6.589v.589a.6.6,0,0,1-1.2,0V.589A.6.6,0,0,1,18.169,0Z" transform="translate(-3.216 0)" fill="#676767" fill-rule="evenodd"/>
    </g>
    <rect id="사각형_3" data-name="사각형 3" width="24" height="24" transform="translate(828 271.86)" fill="none" opacity="0.5"/>
  </g>
</svg>
