<svg xmlns="http://www.w3.org/2000/svg" width="20" height="20" viewBox="0 0 20 20">
  <g id="그룹_1675" data-name="그룹 1675" transform="translate(-340 -787.85)">
    <g id="chat-text" transform="translate(342 790.384)">
      <path id="패스_109" data-name="패스 109" d="M2.678,13.144a1,1,0,0,1,.287.8,10.97,10.97,0,0,1-.4,2A11.8,11.8,0,0,0,5.2,15.052a1,1,0,0,1,.71-.074A8.06,8.06,0,0,0,8,15.25c4,0,7-2.807,7-6s-3-6-7-6-7,2.808-7,6a5.494,5.494,0,0,0,1.678,3.894Zm-.493,3.9q-.355.07-.713.129a.26.26,0,0,1-.273-.362q.133-.314.244-.637l0-.01a10.457,10.457,0,0,0,.524-2.319A6.494,6.494,0,0,1,0,9.25c0-3.866,3.582-7,8-7s8,3.134,8,7-3.582,7-8,7a9.06,9.06,0,0,1-2.347-.306,13.672,13.672,0,0,1-3.468,1.1Z" transform="translate(0 -2.25)" fill="#626262" fill-rule="evenodd"/>
    </g>
    <rect id="사각형_46" data-name="사각형 46" width="20" height="20" transform="translate(340 787.85)" fill="none"/>
  </g>
</svg>
