<svg xmlns="http://www.w3.org/2000/svg" width="30" height="30" viewBox="0 0 30 30">
  <g id="그룹_1334" data-name="그룹 1334" transform="translate(1208 -9101)">
    <g id="user-follow" transform="translate(-1207.25 9102.55)">
      <path id="패스_580" data-name="패스 580" d="M32.75,14.45h-3.2v-3.2h-1.6v3.2h-3.2v1.6h3.2v3.2h1.6v-3.2h3.2Z" transform="translate(-6.5 -2.6)" fill="#1c1c1c"/>
      <path id="패스_581" data-name="패스 581" d="M11.225,3.85a4,4,0,1,1-4,4,4,4,0,0,1,4-4m0-1.6a5.6,5.6,0,1,0,5.6,5.6A5.6,5.6,0,0,0,11.225,2.25Z" transform="translate(-0.975 0)" fill="#1c1c1c"/>
      <path id="패스_582" data-name="패스 582" d="M18.25,29.85h-1.6v-4a4,4,0,0,0-4-4H7.85a4,4,0,0,0-4,4v4H2.25v-4a5.6,5.6,0,0,1,5.6-5.6h4.8a5.6,5.6,0,0,1,5.6,5.6Z" transform="translate(0 -5.2)" fill="#1c1c1c"/>
    </g>
    <rect id="사각형_1122" data-name="사각형 1122" width="30" height="30" transform="translate(-1208 9101)" fill="none" opacity="0.5"/>
  </g>
</svg>
