<svg xmlns="http://www.w3.org/2000/svg" width="18" height="14.228" viewBox="0 0 18 14.228">
  <g id="upload" transform="translate(0 -3.044)">
    <path id="패스_4" data-name="패스 4" d="M.563,10.522a.562.562,0,0,1,.563.563v3.938A1.125,1.125,0,0,0,2.25,16.147h13.5a1.125,1.125,0,0,0,1.125-1.125V11.085a.563.563,0,0,1,1.125,0v3.938a2.25,2.25,0,0,1-2.25,2.25H2.25A2.25,2.25,0,0,1,0,15.022V11.085a.562.562,0,0,1,.563-.562ZM5.625,6.983a.563.563,0,0,0,.8,0L9,4.4l2.58,2.58a.562.562,0,1,0,.8-.8L9.4,3.21a.562.562,0,0,0-.8,0L5.625,6.187a.563.563,0,0,0,0,.8Z" transform="translate(0 0)" fill-rule="evenodd"/>
    <path id="패스_5" data-name="패스 5" d="M17.453,4.5a.578.578,0,0,1,.578.578v9.251a.578.578,0,0,1-1.156,0V5.078A.578.578,0,0,1,17.453,4.5Z" transform="translate(-8.453 -0.707)" fill-rule="evenodd"/>
  </g>
</svg>
