<svg id="구성_요소_94_2" data-name="구성 요소 94 – 2" xmlns="http://www.w3.org/2000/svg" width="30" height="30" viewBox="0 0 30 30">
  <path id="패스_281" data-name="패스 281" d="M4.5,27.333A1.083,1.083,0,0,1,5.583,26.25H20.75a1.083,1.083,0,1,1,0,2.167H5.583A1.083,1.083,0,0,1,4.5,27.333Zm0-6.5A1.083,1.083,0,0,1,5.583,19.75H29.417a1.083,1.083,0,1,1,0,2.167H5.583A1.083,1.083,0,0,1,4.5,20.833Zm0-6.5A1.083,1.083,0,0,1,5.583,13.25H29.417a1.083,1.083,0,1,1,0,2.167H5.583A1.083,1.083,0,0,1,4.5,14.333Zm0-6.5A1.083,1.083,0,0,1,5.583,6.75H29.417a1.083,1.083,0,1,1,0,2.167H5.583A1.083,1.083,0,0,1,4.5,7.833Z" transform="translate(-2.5 -2.5)" fill="#fff" fill-rule="evenodd"/>
  <rect id="사각형_1019" data-name="사각형 1019" width="30" height="30" fill="none" opacity="0.5"/>
</svg>
