<svg xmlns="http://www.w3.org/2000/svg" width="24" height="24" viewBox="0 0 24 24">
  <g id="그룹_421" data-name="그룹 421" transform="translate(-1096 -366)">
    <g id="truck" transform="translate(1098.4 370.8)">
      <path id="패스_511" data-name="패스 511" d="M0,6.3A1.8,1.8,0,0,1,1.8,4.5H12.6a1.8,1.8,0,0,1,1.8,1.8v8.4H13.2V6.3a.6.6,0,0,0-.6-.6H1.8a.6.6,0,0,0-.6.6v8.4a.6.6,0,0,0,.6.6v1.2A1.8,1.8,0,0,1,0,14.7Zm5.4,9h7.2v1.2H5.4Z" transform="translate(0 -4.5)" fill="#626262" fill-rule="evenodd"/>
      <path id="패스_512" data-name="패스 512" d="M14.25,11.25h2.424a1.8,1.8,0,0,1,1.4.676l1.777,2.22a1.8,1.8,0,0,1,.395,1.126V17.85a1.8,1.8,0,0,1-1.8,1.8h-1.2v-1.2h1.2a.6.6,0,0,0,.6-.6V15.27a.6.6,0,0,0-.132-.374l-1.776-2.22a.6.6,0,0,0-.468-.225H15.45v5.4h-1.2Zm-9.6,9.6a1.2,1.2,0,1,0-1.2-1.2A1.2,1.2,0,0,0,4.65,20.85Zm0,1.2a2.4,2.4,0,1,0-2.4-2.4A2.4,2.4,0,0,0,4.65,22.05Z" transform="translate(-1.05 -7.65)" fill="#626262" fill-rule="evenodd"/>
      <path id="패스_513" data-name="패스 513" d="M24.9,26.1a1.2,1.2,0,1,0-1.2-1.2A1.2,1.2,0,0,0,24.9,26.1Zm0,1.2a2.4,2.4,0,1,0-2.4-2.4A2.4,2.4,0,0,0,24.9,27.3Z" transform="translate(-10.5 -12.9)" fill="#626262" fill-rule="evenodd"/>
    </g>
    <rect id="사각형_1023" data-name="사각형 1023" width="24" height="24" transform="translate(1096 366)" fill="none" opacity="0.5"/>
  </g>
</svg>
