<svg id="그룹_436" data-name="그룹 436" xmlns="http://www.w3.org/2000/svg" width="24" height="24" viewBox="0 0 24 24">
  <g id="__TEMP__SVG__" transform="translate(2.393 2.46)">
    <path id="패스_554" data-name="패스 554" d="M22.051,23.647a1.563,1.563,0,0,0,1.6-1.6c0-1.6-1.6-6.382-9.573-6.382S4.5,20.456,4.5,22.051a1.563,1.563,0,0,0,1.6,1.6ZM6.1,22.14v0Zm.027-.089H22.016l.023,0,.013,0a4.26,4.26,0,0,0-1.328-2.655c-1.04-1.04-3-2.125-6.65-2.125s-5.61,1.085-6.65,2.125A4.272,4.272,0,0,0,6.1,22.045Zm15.914.089v0Zm-7.971-9.663a3.191,3.191,0,1,0-3.191-3.191A3.191,3.191,0,0,0,14.073,12.478ZM18.86,9.287A4.787,4.787,0,1,1,14.073,4.5,4.787,4.787,0,0,1,18.86,9.287Z" transform="translate(-4.5 -4.5)" fill="#626262" fill-rule="evenodd"/>
  </g>
  <rect id="사각형_1032" data-name="사각형 1032" width="24" height="24" transform="translate(0 0)" fill="none" opacity="0.5"/>
</svg>
