<svg id="그룹_346" data-name="그룹 346" xmlns="http://www.w3.org/2000/svg" width="20" height="20" viewBox="0 0 20 20">
  <path id="패스_463" data-name="패스 463" d="M.154.167A.506.506,0,0,1,.527,0,.506.506,0,0,1,.9.167L7.206,7a.6.6,0,0,1,0,.806L.9,14.638a.5.5,0,0,1-.744,0,.6.6,0,0,1,0-.806L6.091,7.4.154.973A.594.594,0,0,1,0,.57a.594.594,0,0,1,.154-.4Z" transform="translate(17.403 6.32) rotate(90)" fill="#565656" fill-rule="evenodd"/>
  <rect id="사각형_3" data-name="사각형 3" width="20" height="20" fill="none" opacity="0.5"/>
</svg>
