<svg xmlns="http://www.w3.org/2000/svg" width="20" height="20" viewBox="0 0 20 20">
  <g id="그룹_5" data-name="그룹 5" transform="translate(70 -297)">
    <path id="email" d="M17.107,6.75H3.393A1.143,1.143,0,0,0,2.25,7.893v9.143a1.143,1.143,0,0,0,1.143,1.143H17.107a1.143,1.143,0,0,0,1.143-1.143V7.893A1.143,1.143,0,0,0,17.107,6.75ZM15.85,7.893l-5.6,3.874L4.65,7.893ZM3.393,17.036V8.413l6.532,4.52a.571.571,0,0,0,.651,0l6.532-4.52v8.623Z" transform="translate(-70.25 294.536)" fill="#6c6c6c"/>
    <rect id="사각형_1026" data-name="사각형 1026" width="20" height="20" transform="translate(-70 297)" fill="none" opacity="0.5"/>
  </g>
</svg>
