<svg xmlns="http://www.w3.org/2000/svg" width="20" height="20" viewBox="0 0 20 20">
  <g id="그룹_476" data-name="그룹 476" transform="translate(265 -1232)">
    <g id="gear" transform="translate(-263 1234)">
      <path id="패스_258" data-name="패스 258" d="M8.839,1.626a.872.872,0,0,0-1.674,0l-.094.319A1.873,1.873,0,0,1,4.378,3.061L4.086,2.9A.873.873,0,0,0,2.9,4.086l.159.292A1.873,1.873,0,0,1,1.946,7.07l-.319.094a.872.872,0,0,0,0,1.674l.319.094a1.873,1.873,0,0,1,1.115,2.693l-.16.291A.873.873,0,0,0,4.086,13.1l.292-.159a1.873,1.873,0,0,1,2.692,1.116l.094.318a.872.872,0,0,0,1.674,0l.094-.319a1.873,1.873,0,0,1,2.693-1.115l.291.16A.873.873,0,0,0,13.1,11.916l-.159-.291a1.873,1.873,0,0,1,1.116-2.693l.318-.094a.872.872,0,0,0,0-1.674l-.319-.094a1.873,1.873,0,0,1-1.115-2.692l.16-.292A.873.873,0,0,0,11.916,2.9l-.291.159A1.873,1.873,0,0,1,8.932,1.945l-.094-.319ZM6.206,1.343a1.873,1.873,0,0,1,3.592,0l.094.319a.873.873,0,0,0,1.255.52l.292-.16a1.873,1.873,0,0,1,2.54,2.541l-.159.292a.873.873,0,0,0,.52,1.255l.319.094a1.873,1.873,0,0,1,0,3.592l-.319.094a.873.873,0,0,0-.52,1.255l.16.292a1.873,1.873,0,0,1-2.541,2.54l-.292-.159a.873.873,0,0,0-1.255.52l-.094.319a1.873,1.873,0,0,1-3.592,0l-.094-.319a.873.873,0,0,0-1.255-.52l-.292.16a1.873,1.873,0,0,1-2.54-2.541l.159-.292a.873.873,0,0,0-.52-1.255L1.344,9.8a1.873,1.873,0,0,1,0-3.592l.319-.094a.873.873,0,0,0,.52-1.255l-.16-.292a1.873,1.873,0,0,1,2.541-2.54l.292.159a.873.873,0,0,0,1.255-.52l.094-.319Z" transform="translate(-0.002 -0.001)" fill="#0575e6" fill-rule="evenodd"/>
      <path id="패스_259" data-name="패스 259" d="M14.1,11.746A2.358,2.358,0,1,0,16.463,14.1,2.358,2.358,0,0,0,14.1,11.746ZM10.7,14.1A3.408,3.408,0,1,1,14.1,17.513,3.408,3.408,0,0,1,10.7,14.1Z" transform="translate(-6.105 -6.105)" fill="#0575e6" fill-rule="evenodd"/>
    </g>
    <rect id="사각형_122" data-name="사각형 122" width="20" height="20" transform="translate(-265 1232)" fill="none"/>
  </g>
</svg>
