<svg xmlns="http://www.w3.org/2000/svg" width="24" height="24" viewBox="0 0 24 24">
  <g id="그룹_419" data-name="그룹 419" transform="translate(-829 -365.824)">
    <g id="__TEMP__SVG__" transform="translate(831.383 368.383)">
      <path id="패스_516" data-name="패스 516" d="M16.677,3.441H2.382A1.191,1.191,0,0,0,1.191,4.632v13.1a1.191,1.191,0,0,0,1.191,1.191H16.677a1.191,1.191,0,0,0,1.191-1.191V4.632A1.191,1.191,0,0,0,16.677,3.441ZM2.382,2.25A2.382,2.382,0,0,0,0,4.632v13.1a2.382,2.382,0,0,0,2.382,2.382H16.677a2.382,2.382,0,0,0,2.382-2.382V4.632A2.382,2.382,0,0,0,16.677,2.25Z" transform="translate(0 -1.054)" fill="#626262" fill-rule="evenodd"/>
      <path id="패스_517" data-name="패스 517" d="M16.677,3.446H2.382a1.194,1.194,0,0,0-1.191,1.2v1.2H17.869v-1.2A1.194,1.194,0,0,0,16.677,3.446ZM2.382,2.25A2.387,2.387,0,0,0,0,4.642V7.035H19.06V4.642A2.387,2.387,0,0,0,16.677,2.25Z" transform="translate(0 -1.054)" fill="#626262" fill-rule="evenodd"/>
      <path id="패스_518" data-name="패스 518" d="M7.344,0a.6.6,0,0,1,.594.6v.6a.594.594,0,1,1-1.188,0V.6A.6.6,0,0,1,7.344,0ZM18.038,0a.6.6,0,0,1,.594.6v.6a.594.594,0,1,1-1.188,0V.6A.6.6,0,0,1,18.038,0Z" transform="translate(-3.161 0)" fill="#626262" fill-rule="evenodd"/>
      <path id="패스_519" data-name="패스 519" d="M25.348,15.75h1.2a.6.6,0,0,1,.6.6v1.2a.6.6,0,0,1-.6.6h-1.2a.6.6,0,0,1-.6-.6v-1.2A.6.6,0,0,1,25.348,15.75Z" transform="translate(-11.654 -7.416)" fill="#626262"/>
    </g>
    <rect id="사각형_1019" data-name="사각형 1019" width="24" height="24" transform="translate(829 365.824)" fill="none" opacity="0.5"/>
  </g>
</svg>
