<svg xmlns="http://www.w3.org/2000/svg" width="20" height="20" viewBox="0 0 20 20">
  <g id="그룹_1294" data-name="그룹 1294" transform="translate(-1971 -156)">
    <g id="clipboard-check" transform="translate(1974 158)">
      <path id="패스_520" data-name="패스 520" d="M5.25,3.375h-1a2,2,0,0,0-2,2v10.5a2,2,0,0,0,2,2h10a2,2,0,0,0,2-2V5.374a2,2,0,0,0-2-2h-1v1h1a1,1,0,0,1,1,1v10.5a1,1,0,0,1-1,1h-10a1,1,0,0,1-1-1V5.374a1,1,0,0,1,1-1h1Z" transform="translate(-2.25 -1.869)" fill="#a6a6a6" fill-rule="evenodd"/>
      <path id="패스_521" data-name="패스 521" d="M15.769,1H12.756a.5.5,0,0,0-.5.5v1a.5.5,0,0,0,.5.5h3.012a.5.5,0,0,0,.5-.5v-1A.5.5,0,0,0,15.769,1ZM12.756,0A1.506,1.506,0,0,0,11.25,1.506v1a1.506,1.506,0,0,0,1.506,1.506h3.012A1.506,1.506,0,0,0,17.275,2.51v-1A1.506,1.506,0,0,0,15.769,0Zm4.372,7.176a.5.5,0,0,1,0,.711L14.116,10.9a.5.5,0,0,1-.711,0L11.9,9.393a.5.5,0,0,1,.711-.711L13.76,9.834l2.657-2.658a.5.5,0,0,1,.711,0Z" transform="translate(-7.262)" fill="#a6a6a6" fill-rule="evenodd"/>
    </g>
    <rect id="사각형_1019" data-name="사각형 1019" width="20" height="20" transform="translate(1971 156)" fill="none" opacity="0.5"/>
  </g>
</svg>
