<svg xmlns="http://www.w3.org/2000/svg" width="20" height="20" viewBox="0 0 20 20">
  <g id="그룹_2308" data-name="그룹 2308" transform="translate(-4161 50)">
    <g id="clipboard-plus" transform="translate(4161.75 -48)">
      <path id="패스_585" data-name="패스 585" d="M5.25,3.375h-1a2,2,0,0,0-2,2v10.5a2,2,0,0,0,2,2h10a2,2,0,0,0,2-2V5.375a2,2,0,0,0-2-2h-1v1h1a1,1,0,0,1,1,1v10.5a1,1,0,0,1-1,1h-10a1,1,0,0,1-1-1V5.375a1,1,0,0,1,1-1h1Z" transform="translate(0 -1.875)" fill="#a6a6a6" fill-rule="evenodd"/>
      <path id="패스_586" data-name="패스 586" d="M15.75,1h-3a.5.5,0,0,0-.5.5v1a.5.5,0,0,0,.5.5h3a.5.5,0,0,0,.5-.5v-1A.5.5,0,0,0,15.75,1Zm-3-1a1.5,1.5,0,0,0-1.5,1.5v1A1.5,1.5,0,0,0,12.75,4h3a1.5,1.5,0,0,0,1.5-1.5v-1A1.5,1.5,0,0,0,15.75,0Zm1.5,7a.5.5,0,0,1,.5.5V9h1.5a.5.5,0,0,1,0,1h-1.5v1.5a.5.5,0,1,1-1,0V10h-1.5a.5.5,0,0,1,0-1h1.5V7.5A.5.5,0,0,1,14.25,7Z" transform="translate(-5)" fill="#a6a6a6" fill-rule="evenodd"/>
    </g>
    <rect id="사각형_1019" data-name="사각형 1019" width="20" height="20" transform="translate(4161 -50)" fill="none" opacity="0.5"/>
  </g>
</svg>
