<svg xmlns="http://www.w3.org/2000/svg" width="20" height="20" viewBox="0 0 20 20">
  <g id="그룹_1295" data-name="그룹 1295" transform="translate(-1992 -184)">
    <g id="__TEMP__SVG__" transform="translate(1994 186)">
      <path id="패스_554" data-name="패스 554" d="M19.167,20.5A1.306,1.306,0,0,0,20.5,19.167c0-1.333-1.333-5.333-8-5.333s-8,4-8,5.333A1.306,1.306,0,0,0,5.833,20.5ZM5.84,19.241v0Zm.023-.075H19.137l.019,0,.011,0a3.56,3.56,0,0,0-1.109-2.219c-.869-.869-2.505-1.775-5.557-1.775s-4.688.907-5.557,1.776a3.57,3.57,0,0,0-1.109,2.219Zm13.3.075v0ZM12.5,11.167A2.667,2.667,0,1,0,9.833,8.5,2.667,2.667,0,0,0,12.5,11.167Zm4-2.667a4,4,0,1,1-4-4A4,4,0,0,1,16.5,8.5Z" transform="translate(-4.5 -4.5)" fill="#1c1c1c" fill-rule="evenodd"/>
    </g>
    <rect id="사각형_1032" data-name="사각형 1032" width="20" height="20" transform="translate(1992 184)" fill="none" opacity="0.5"/>
  </g>
</svg>
