<svg xmlns="http://www.w3.org/2000/svg" width="20" height="20" viewBox="0 0 20 20">
  <g id="그룹_349" data-name="그룹 349" transform="translate(-634 54)">
    <g id="arrow-clockwise" transform="translate(632.642 -51.998)">
      <path id="패스_464" data-name="패스 464" d="M5.837,9.82a5.672,5.672,0,0,1,3.2-3.7,5.769,5.769,0,0,1,4.921.13A.575.575,0,0,0,14.725,6a.563.563,0,0,0-.25-.761,6.9,6.9,0,0,0-8.621,2,6.733,6.733,0,0,0,.553,8.744,6.911,6.911,0,0,0,8.8.917,6.745,6.745,0,0,0,2.381-8.439.574.574,0,0,0-.758-.279.563.563,0,0,0-.282.75,5.614,5.614,0,0,1-1.415,6.6,5.762,5.762,0,0,1-6.791.565A5.629,5.629,0,0,1,5.837,9.82Z" transform="translate(0 -2.07)" fill="#6c6c6c" fill-rule="evenodd"/>
      <path id="패스_465" data-name="패스 465" d="M18.179.176a.607.607,0,0,1,.859,0l3.036,3.036a.607.607,0,0,1,0,.86L19.038,7.109a.608.608,0,0,1-.859-.86l2.606-2.606L18.179,1.036a.607.607,0,0,1,0-.86Z" transform="translate(-6.82 0)" fill="#6c6c6c" fill-rule="evenodd"/>
    </g>
    <rect id="사각형_3" data-name="사각형 3" width="20" height="20" transform="translate(634 -54)" fill="none" opacity="0.5"/>
  </g>
</svg>
