<svg xmlns="http://www.w3.org/2000/svg" width="60" height="60" viewBox="0 0 60 60">
  <path id="user" d="M1670,54a30,30,0,1,1,30,30A30,30,0,0,1,1670,54Zm4.686,0A25.313,25.313,0,1,0,1700,28.688,25.312,25.312,0,0,0,1674.687,54Zm25.259,15c-5.42.078-10.891-.815-11.175-2.887-.563-4.151.628-5.815,3.036-6.225,1.875-.321,4.443-2.14,4.443-2.928V54.959c0-.744-1.007-2.135-1.435-3.417-.04-.12-.192.019-.44-.287a4.768,4.768,0,0,1-.707-1.87c-.17-.633.571-.66.571-.66a16.857,16.857,0,0,1-.076-5.425c.692-2.859,4.393-4.3,5.844-4.3s5.157,1.441,5.847,4.3a16.973,16.973,0,0,1-.066,5.425s.77.027.6.66a4.579,4.579,0,0,1-.65,1.87c-.252.305-.511.167-.55.287-.428,1.283-1.434,2.673-1.434,3.417v1.995c0,.788,2.567,2.607,4.441,2.928,2.408.41,3.574,2.074,3.009,6.225-.272,1.99-5.4,2.892-10.608,2.892C1700.378,69,1700.161,69,1699.945,68.994Z" transform="translate(-1670 -24)" fill="#b0b0b0"/>
</svg>
