<svg xmlns="http://www.w3.org/2000/svg" width="20" height="20" viewBox="0 0 20 20">
  <g id="그룹_479" data-name="그룹 479" transform="translate(212 -1255)">
    <g id="window" transform="translate(-210 1258)">
      <path id="패스_396" data-name="패스 396" d="M14,3.25H2a1,1,0,0,0-1,1v10a1,1,0,0,0,1,1H14a1,1,0,0,0,1-1v-10A1,1,0,0,0,14,3.25Zm-12-1a2,2,0,0,0-2,2v10a2,2,0,0,0,2,2H14a2,2,0,0,0,2-2v-10a2,2,0,0,0-2-2Z" transform="translate(0 -2.25)" fill="#6c6c6c" fill-rule="evenodd"/>
      <path id="패스_397" data-name="패스 397" d="M16.25,12.25h-14v-1h14Z" transform="translate(-1.25 -7.25)" fill="#6c6c6c" fill-rule="evenodd"/>
      <path id="패스_398" data-name="패스 398" d="M5.5,7.25a.5.5,0,1,1-.5-.5A.5.5,0,0,1,5.5,7.25Zm1.5,0a.5.5,0,1,1-.5-.5A.5.5,0,0,1,7,7.25Zm1.5,0a.5.5,0,1,1-.5-.5A.5.5,0,0,1,8.5,7.25Z" transform="translate(-2.5 -4.75)" fill="#6c6c6c"/>
    </g>
    <rect id="사각형_1030" data-name="사각형 1030" width="20" height="20" transform="translate(-212 1255)" fill="none"/>
  </g>
</svg>
