<svg xmlns="http://www.w3.org/2000/svg" width="20" height="20" viewBox="0 0 20 20">
  <g id="그룹_633" data-name="그룹 633" transform="translate(-1767 -447)">
    <rect id="사각형_3" data-name="사각형 3" width="20" height="20" transform="translate(1767 447)" fill="none" opacity="0.5"/>
    <g id="x-circle-fill" transform="translate(1768 448)">
      <path id="패스_475" data-name="패스 475" d="M18,9A9,9,0,1,1,9,0,9,9,0,0,1,18,9ZM13.336,5.461a.563.563,0,0,0-.8-.8L9,8.2,5.461,4.665a.563.563,0,0,0-.8.8L8.2,9l-3.54,3.54a.563.563,0,0,0,.8.8L9,9.8l3.54,3.541a.563.563,0,1,0,.8-.8L9.8,9l3.541-3.539Z" fill="#ff8181" fill-rule="evenodd"/>
    </g>
  </g>
</svg>
