<svg xmlns="http://www.w3.org/2000/svg" width="14" height="14" viewBox="0 0 14 14">
  <g id="그룹_660" data-name="그룹 660" transform="translate(0 0.329)">
    <g id="x-circle" transform="translate(0.729 0.729)">
      <path id="패스_479" data-name="패스 479" d="M6.271,11.758A5.487,5.487,0,1,0,.784,6.271,5.487,5.487,0,0,0,6.271,11.758Zm0,.784A6.271,6.271,0,1,0,0,6.271,6.271,6.271,0,0,0,6.271,12.542Z" fill="#3c3c3c" fill-rule="evenodd"/>
      <path id="패스_480" data-name="패스 480" d="M15.155,9.114a.392.392,0,0,1,0,.555L9.668,15.156a.392.392,0,0,1-.555-.555L14.6,9.114a.392.392,0,0,1,.555,0Z" transform="translate(-5.863 -5.863)" fill="#3c3c3c" fill-rule="evenodd"/>
      <path id="패스_481" data-name="패스 481" d="M9.114,9.114a.392.392,0,0,0,0,.555L14.6,15.156a.392.392,0,0,0,.555-.555L9.669,9.114a.392.392,0,0,0-.555,0Z" transform="translate(-5.863 -5.863)" fill="#3c3c3c" fill-rule="evenodd"/>
    </g>
    <rect id="사각형_3" data-name="사각형 3" width="14" height="14" transform="translate(0 -0.329)" fill="none" opacity="0.5"/>
  </g>
</svg>
