<svg xmlns="http://www.w3.org/2000/svg" width="30" height="30" viewBox="0 0 30 30">
  <g id="그룹_424" data-name="그룹 424" transform="translate(-1094.767 -474.167)">
    <g id="window" transform="translate(1097.978 478.538)">
      <path id="패스_507" data-name="패스 507" d="M20.843,3.739H2.978A1.489,1.489,0,0,0,1.489,5.228V20.115A1.489,1.489,0,0,0,2.978,21.6H20.843a1.489,1.489,0,0,0,1.489-1.489V5.228A1.489,1.489,0,0,0,20.843,3.739ZM2.978,2.25A2.978,2.978,0,0,0,0,5.228V20.115a2.978,2.978,0,0,0,2.978,2.978H20.843a2.978,2.978,0,0,0,2.978-2.978V5.228A2.978,2.978,0,0,0,20.843,2.25Z" transform="translate(0 -2.25)" fill="#626262" fill-rule="evenodd"/>
      <path id="패스_508" data-name="패스 508" d="M23.084,12.743H2.25V11.25H23.084Z" transform="translate(-0.757 -5.296)" fill="#626262" fill-rule="evenodd"/>
      <path id="패스_509" data-name="패스 509" d="M5.993,7.5a.747.747,0,1,1-.747-.747A.747.747,0,0,1,5.993,7.5Zm2.24,0a.747.747,0,1,1-.747-.747A.747.747,0,0,1,8.233,7.5Zm2.24,0a.747.747,0,1,1-.747-.747A.747.747,0,0,1,10.473,7.5Z" transform="translate(-1.513 -3.763)" fill="#626262"/>
    </g>
    <rect id="사각형_1025" data-name="사각형 1025" width="30" height="30" transform="translate(1094.767 474.167)" fill="none" opacity="0.5"/>
  </g>
</svg>
