<svg xmlns="http://www.w3.org/2000/svg" width="36" height="36" viewBox="0 0 36 36">
  <g id="그룹_856" data-name="그룹 856" transform="translate(772 9259)">
    <g id="credit-card-2-front" transform="translate(-769 -9256.75)">
      <path id="패스_571" data-name="패스 571" d="M26.25,6.375H3.75A1.875,1.875,0,0,0,1.875,8.25v15A1.875,1.875,0,0,0,3.75,25.125h22.5a1.875,1.875,0,0,0,1.875-1.875v-15A1.875,1.875,0,0,0,26.25,6.375ZM3.75,4.5A3.75,3.75,0,0,0,0,8.25v15A3.75,3.75,0,0,0,3.75,27h22.5A3.75,3.75,0,0,0,30,23.25v-15A3.75,3.75,0,0,0,26.25,4.5Z" transform="translate(0)" fill="#1c1c1c" fill-rule="evenodd"/>
      <path id="패스_572" data-name="패스 572" d="M4.5,12.195a.945.945,0,0,1,.945-.945H9.223a.945.945,0,0,1,.945.945v1.889a.945.945,0,0,1-.945.945H5.445a.945.945,0,0,1-.945-.945Z" transform="translate(-0.722 -1.134)" fill="#1c1c1c"/>
      <path id="패스_573" data-name="패스 573" d="M4.5,18.945A.945.945,0,0,1,5.445,18h9.446a.945.945,0,1,1,0,1.889H5.445A.945.945,0,0,1,4.5,18.945Zm0,3.778a.945.945,0,0,1,.945-.945H7.334a.945.945,0,0,1,0,1.889H5.445A.945.945,0,0,1,4.5,22.723Zm5.668,0a.945.945,0,0,1,.945-.945H13a.945.945,0,1,1,0,1.889H11.112A.945.945,0,0,1,10.168,22.723Zm5.668,0a.945.945,0,0,1,.945-.945h1.889a.945.945,0,1,1,0,1.889H16.78A.945.945,0,0,1,15.835,22.723Zm5.668,0a.945.945,0,0,1,.945-.945h1.889a.945.945,0,0,1,0,1.889H22.448A.945.945,0,0,1,21.5,22.723Z" transform="translate(-0.722 -2.278)" fill="#1a8dff" fill-rule="evenodd"/>
    </g>
    <rect id="사각형_1019" data-name="사각형 1019" width="36" height="36" transform="translate(-772 -9259)" fill="none" opacity="0.5"/>
  </g>
</svg>
