<svg xmlns="http://www.w3.org/2000/svg" width="30" height="30" viewBox="0 0 30 30">
  <g id="그룹_442" data-name="그룹 442" transform="translate(0 -0.926)">
    <g id="people" transform="translate(3.058 6.422)">
      <path id="패스_569" data-name="패스 569" d="M22.937,22.85a1.5,1.5,0,0,0,1.529-1.529c0-1.529-1.529-6.117-7.646-6.117s-7.646,4.587-7.646,6.117A1.5,1.5,0,0,0,10.7,22.85ZM10.712,21.406v0Zm.027-.086H22.9l.022,0,.012,0a4.709,4.709,0,0,0-1.162-2.63,6.123,6.123,0,0,0-4.955-1.951,6.128,6.128,0,0,0-4.954,1.951,4.7,4.7,0,0,0-1.162,2.63l.033.006Zm12.192.086v0Zm-6.109-9.261a3.058,3.058,0,1,0-3.058-3.058A3.058,3.058,0,0,0,16.821,12.146Zm4.587-3.058A4.587,4.587,0,1,1,16.821,4.5,4.587,4.587,0,0,1,21.408,9.087Zm-10.8,6.545a8.991,8.991,0,0,0-1.881-.378q-.538-.051-1.079-.05C1.529,15.2,0,19.792,0,21.321A1.351,1.351,0,0,0,1.529,22.85H7.976a3.422,3.422,0,0,1-.33-1.529A7.015,7.015,0,0,1,9.313,16.88,8.118,8.118,0,0,1,10.606,15.632Zm-3.083,1.1a6.081,6.081,0,0,0-4.832,1.951,4.679,4.679,0,0,0-1.162,2.636H6.117A8.415,8.415,0,0,1,7.523,16.733ZM2.294,9.852A4.587,4.587,0,1,1,6.881,14.44,4.587,4.587,0,0,1,2.294,9.852ZM6.881,6.794A3.058,3.058,0,1,0,9.94,9.852,3.058,3.058,0,0,0,6.881,6.794Z" transform="translate(0 -4.5)" fill="#626262" fill-rule="evenodd"/>
    </g>
    <rect id="사각형_1034" data-name="사각형 1034" width="30" height="30" transform="translate(0 0.926)" fill="none" opacity="0.5"/>
  </g>
</svg>
