<svg xmlns="http://www.w3.org/2000/svg" width="30" height="30" viewBox="0 0 30 30">
  <g id="그룹_1492" data-name="그룹 1492" transform="translate(-2905 11212)">
    <g id="사각형_1771" data-name="사각형 1771" transform="translate(2905 -11212)" fill="#fff" stroke="#b0b0b0" stroke-width="1">
      <rect width="30" height="30" rx="3" stroke="none"/>
      <rect x="0.5" y="0.5" width="29" height="29" rx="2.5" fill="none"/>
    </g>
    <g id="그룹_1490" data-name="그룹 1490" transform="translate(8 -53)">
      <g id="pen" transform="translate(2899.752 -11156.098)">
        <path id="패스_584" data-name="패스 584" d="M8.983,21.181a1.431,1.431,0,0,1-.558.346L4.133,22.958a1.431,1.431,0,0,1-1.811-1.81l1.431-4.293A1.431,1.431,0,0,1,4.1,16.3L15.248,5.145a2.861,2.861,0,0,1,4.046,0l.839.839a2.862,2.862,0,0,1,0,4.047L8.984,21.181ZM5.11,17.308,16.259,6.157a1.43,1.43,0,0,1,2.023,0L19.12,7a1.431,1.431,0,0,1,0,2.023L7.972,20.17,3.68,21.6Z" transform="translate(0 -0.896)" fill="#3c3c3c" fill-rule="evenodd"/>
        <path id="패스_585" data-name="패스 585" d="M17.822,4.734a.677.677,0,0,0-.959,0L12.405,9.2a.678.678,0,1,1-.959-.959l4.461-4.46a2.031,2.031,0,0,1,2.873,0l.4.4a.678.678,0,0,1-.958.959l-.4-.4Z" transform="translate(-3.085 -0.448)" fill="#3c3c3c" fill-rule="evenodd"/>
        <path id="패스_586" data-name="패스 586" d="M28.751,2.454a1.354,1.354,0,0,1,1.914,0l.041.041a1.354,1.354,0,0,1,.041,1.873L29.031,6.236,27,4.2Z" transform="translate(-8.855)" fill="#3c3c3c"/>
      </g>
      <rect id="사각형_1019" data-name="사각형 1019" width="24" height="24" transform="translate(2900 -11156)" fill="none" opacity="0.5"/>
    </g>
  </g>
</svg>
