<svg xmlns="http://www.w3.org/2000/svg" width="40" height="40" viewBox="0 0 40 40">
  <g id="그룹_1193" data-name="그룹 1193" transform="translate(9348 -2500)">
    <g id="그룹_1190" data-name="그룹 1190" transform="translate(-211 53)">
      <g id="clipboard-minus" transform="translate(-9133.25 2450.941)">
        <path id="패스_551" data-name="패스 551" d="M8.25,3.375h-2a4,4,0,0,0-4,4v21a4,4,0,0,0,4,4h20a4,4,0,0,0,4-4v-21a4,4,0,0,0-4-4h-2v2h2a2,2,0,0,1,2,2v21a2,2,0,0,1-2,2h-20a2,2,0,0,1-2-2v-21a2,2,0,0,1,2-2h2Z" transform="translate(0 -0.369)" fill="#fff" fill-rule="evenodd"/>
        <path id="패스_552" data-name="패스 552" d="M20.267,2H14.256a1,1,0,0,0-1,1v2a1,1,0,0,0,1,1h6.011a1,1,0,0,0,1-1v-2A1,1,0,0,0,20.267,2ZM14.256,0A3.006,3.006,0,0,0,11.25,3.006v2a3.006,3.006,0,0,0,3.006,3.006h6.011a3.006,3.006,0,0,0,3.006-3.006v-2A3.006,3.006,0,0,0,20.267,0Zm-2,19.035a1,1,0,0,1,1-1h8.015a1,1,0,0,1,0,2H13.254A1,1,0,0,1,12.252,19.035Z" transform="translate(-1.011)" fill="#fff" fill-rule="evenodd"/>
      </g>
    </g>
    <rect id="사각형_1028" data-name="사각형 1028" width="40" height="40" transform="translate(-9348 2500)" fill="none" opacity="0.5"/>
  </g>
</svg>
