<svg xmlns="http://www.w3.org/2000/svg" width="40" height="40" viewBox="0 0 40 40">
  <g id="그룹_1300" data-name="그룹 1300" transform="translate(-340 -787.85)">
    <g id="chat-text" transform="translate(343.321 792.43)">
      <path id="패스_109" data-name="패스 109" d="M5.559,24.861a2.076,2.076,0,0,1,.6,1.662,22.769,22.769,0,0,1-.827,4.151,24.5,24.5,0,0,0,5.466-1.853,2.075,2.075,0,0,1,1.473-.153,16.729,16.729,0,0,0,4.336.564c8.294,0,14.528-5.826,14.528-12.453S24.9,4.325,16.6,4.325,2.075,10.154,2.075,16.778A11.4,11.4,0,0,0,5.559,24.86Zm-1.023,8.1q-.738.146-1.48.268a.54.54,0,0,1-.566-.752q.276-.652.506-1.322L3,31.139A21.7,21.7,0,0,0,4.09,26.326,13.479,13.479,0,0,1,0,16.778C0,8.754,7.434,2.25,16.6,2.25s16.6,6.5,16.6,14.528S25.774,31.307,16.6,31.307a18.8,18.8,0,0,1-4.871-.636,28.376,28.376,0,0,1-7.2,2.293Z" transform="translate(0 -2.25)" fill="#fff" fill-rule="evenodd"/>
    </g>
    <rect id="사각형_46" data-name="사각형 46" width="40" height="40" transform="translate(340 787.85)" fill="none"/>
  </g>
</svg>
