<svg xmlns="http://www.w3.org/2000/svg" width="40" height="40" viewBox="0 0 40 40">
  <g id="그룹_998" data-name="그룹 998" transform="translate(1530 -7597)">
    <g id="bulb-outline" transform="translate(-1528.16 7598.751)">
      <path id="패스_572" data-name="패스 572" d="M21.589,27.5V25.777c0-2.08,2.253-4.048,3.714-5.452a10.408,10.408,0,0,0,3.143-7.747,10.285,10.285,0,1,0-20.571,0,10.657,10.657,0,0,0,3.143,7.747c1.454,1.378,3.714,3.35,3.714,5.452V27.5" transform="translate(0)" fill="none" stroke="#fff" stroke-linecap="round" stroke-linejoin="round" stroke-width="2.25"/>
      <path id="패스_573" data-name="패스 573" d="M15.75,33.75h4.5" transform="translate(0.16 0.499)" fill="none" stroke="#fff" stroke-linecap="round" stroke-linejoin="round" stroke-width="2.25"/>
      <path id="패스_574" data-name="패스 574" d="M14.625,30.375h6.75" transform="translate(0.16 0.499)" fill="none" stroke="#fff" stroke-linecap="round" stroke-linejoin="round" stroke-width="2.25"/>
      <path id="패스_575" data-name="패스 575" d="M18,27V18" transform="translate(0.16 0.349)" fill="none" stroke="#fff" stroke-linecap="round" stroke-linejoin="round" stroke-width="2.25"/>
      <path id="패스_576" data-name="패스 576" d="M20.672,16.875A5.846,5.846,0,0,1,18,18a5.846,5.846,0,0,1-2.672-1.125" transform="translate(0.16 0.24)" fill="none" stroke="#fff" stroke-linecap="round" stroke-linejoin="round" stroke-width="2.25"/>
    </g>
    <rect id="사각형_1025" data-name="사각형 1025" width="40" height="40" transform="translate(-1530 7597)" fill="none" opacity="0.5"/>
  </g>
</svg>
