<svg xmlns="http://www.w3.org/2000/svg" width="40" height="40" viewBox="0 0 40 40">
  <g id="그룹_434" data-name="그룹 434" transform="translate(0 0.367)">
    <g id="gear" transform="translate(3.989 3.989)">
      <path id="패스_522" data-name="패스 522" d="M17.627,3.243a1.74,1.74,0,0,0-3.339,0l-.187.637A3.736,3.736,0,0,1,8.731,6.1l-.582-.319A1.742,1.742,0,0,0,5.786,8.148L6.1,8.73A3.736,3.736,0,0,1,3.88,14.1l-.637.187a1.74,1.74,0,0,0,0,3.339l.637.187A3.736,3.736,0,0,1,6.1,23.184l-.319.581a1.742,1.742,0,0,0,2.363,2.362l.582-.317a3.736,3.736,0,0,1,5.37,2.226l.187.635a1.74,1.74,0,0,0,3.339,0l.187-.637a3.736,3.736,0,0,1,5.371-2.224l.581.319a1.742,1.742,0,0,0,2.362-2.363l-.317-.581a3.736,3.736,0,0,1,2.226-5.371l.635-.187a1.74,1.74,0,0,0,0-3.339l-.637-.187a3.736,3.736,0,0,1-2.224-5.37l.319-.582a1.742,1.742,0,0,0-2.363-2.362l-.581.317a3.736,3.736,0,0,1-5.371-2.224l-.187-.637Zm-5.252-.565a3.735,3.735,0,0,1,7.165,0l.187.637a1.741,1.741,0,0,0,2.5,1.037l.582-.319A3.735,3.735,0,0,1,27.879,9.1l-.317.582a1.741,1.741,0,0,0,1.037,2.5l.637.187a3.735,3.735,0,0,1,0,7.165l-.637.187a1.741,1.741,0,0,0-1.037,2.5l.319.582a3.736,3.736,0,0,1-5.068,5.066l-.582-.317a1.741,1.741,0,0,0-2.5,1.037l-.187.637a3.735,3.735,0,0,1-7.165,0l-.187-.637a1.741,1.741,0,0,0-2.5-1.037L9.1,27.88a3.736,3.736,0,0,1-5.066-5.068l.317-.582a1.741,1.741,0,0,0-1.037-2.5l-.637-.187a3.735,3.735,0,0,1,0-7.165l.637-.187a1.741,1.741,0,0,0,1.037-2.5L4.034,9.1A3.736,3.736,0,0,1,9.1,4.035l.582.317a1.741,1.741,0,0,0,2.5-1.037l.187-.637Z" transform="translate(-0.002 -0.001)" fill="#fff" fill-rule="evenodd"/>
      <path id="패스_523" data-name="패스 523" d="M17.2,12.7a4.5,4.5,0,1,0,4.5,4.5,4.5,4.5,0,0,0-4.5-4.5Zm-6.5,4.5a6.5,6.5,0,1,1,6.5,6.5,6.5,6.5,0,0,1-6.5-6.5Z" transform="translate(-1.242 -1.241)" fill="#fff" fill-rule="evenodd"/>
    </g>
    <rect id="사각형_1031" data-name="사각형 1031" width="40" height="40" transform="translate(0 -0.367)" fill="none" opacity="0.5"/>
  </g>
</svg>
