<svg xmlns="http://www.w3.org/2000/svg" width="16" height="16" viewBox="0 0 16 16">
  <g id="그룹_1988" data-name="그룹 1988" transform="translate(-247 -482)">
    <rect id="사각형_1547" data-name="사각형 1547" width="16" height="16" transform="translate(247 482)" fill="none" opacity="0.5"/>
    <g id="그룹_1981" data-name="그룹 1981" transform="translate(-7986.527 -2041)">
      <path id="패스_292" data-name="패스 292" d="M13.921,19.809H7.071A1.1,1.1,0,0,1,6,18.679V11.23h.749v7.449a.352.352,0,0,0,.083.256.348.348,0,0,0,.239.121h6.85a.348.348,0,0,0,.239-.121.352.352,0,0,0,.083-.256V11.23h.749v7.449A1.1,1.1,0,0,1,13.921,19.809Z" transform="translate(8231.072 2517.191)" fill="#6d6d6d"/>
      <path id="패스_293" data-name="패스 293" d="M14.043,7.754H4.375a.377.377,0,0,1,0-.754h9.668a.377.377,0,0,1,0,.754Z" transform="translate(8232.318 2519.875)" fill="#6d6d6d"/>
      <path id="패스_294" data-name="패스 294" d="M21,13h.754v5.651H21Z" transform="translate(8221.691 2516.108)" fill="#6d6d6d"/>
      <path id="패스_295" data-name="패스 295" d="M13,13h.754v5.651H13Z" transform="translate(8226.692 2516.108)" fill="#6d6d6d"/>
      <path id="패스_296" data-name="패스 296" d="M16.768,3.454h-.716v-.7H13.716v.7H13v-.7A.754.754,0,0,1,13.716,2h2.336a.754.754,0,0,1,.716.754Z" transform="translate(8226.685 2523)" fill="#6d6d6d"/>
    </g>
  </g>
</svg>
