<svg xmlns="http://www.w3.org/2000/svg" width="20" height="20" viewBox="0 0 20 20">
  <g id="그룹_1967" data-name="그룹 1967" transform="translate(-41 -254)">
    <path id="pencil" d="M1.817,16.875l0,0a.839.839,0,0,0,.595.248.85.85,0,0,0,.274-.046l4.8-1.627,9.2-9.2a3,3,0,1,0-4.244-4.243l-9.2,9.2-1.627,4.8a.839.839,0,0,0,.2.869ZM13.211,2.77a1.92,1.92,0,1,1,2.715,2.715l-1.21,1.211L12,3.98ZM4.184,11.8l7.052-7.052,2.715,2.715L6.9,14.51,2.791,15.9Z" transform="translate(41.431 254.874)" fill="#1c1c1c"/>
    <rect id="사각형_3" data-name="사각형 3" width="20" height="20" transform="translate(41 254)" fill="none" opacity="0.5"/>
  </g>
</svg>
