<svg xmlns="http://www.w3.org/2000/svg" width="24" height="24" viewBox="0 0 24 24">
  <g id="그룹_1616" data-name="그룹 1616" transform="translate(-2890 -1325)">
    <path id="ban" d="M18.2,4.054a10,10,0,1,0,0,14.142,10,10,0,0,0,0-14.142Zm-7.071-1.6a8.629,8.629,0,0,1,5.647,2.1L4.556,16.772A8.662,8.662,0,0,1,11.125,2.458Zm0,17.333A8.629,8.629,0,0,1,5.5,17.713L17.714,5.5a8.663,8.663,0,0,1-6.588,14.292Z" transform="translate(2890.875 1325.875)" fill="#fff"/>
    <rect id="사각형_1549" data-name="사각형 1549" width="24" height="24" transform="translate(2890 1325)" fill="none" opacity="0.5"/>
  </g>
</svg>
