<svg xmlns="http://www.w3.org/2000/svg" width="20" height="20" viewBox="0 0 20 20">
  <g id="그룹_376" data-name="그룹 376" transform="translate(59 -483.2)">
    <g id="journal" transform="translate(-56.429 485.2)">
      <path id="패스_567" data-name="패스 567" d="M6.782,2.25h9.129a2.284,2.284,0,0,1,2.282,2.286V15.964a2.284,2.284,0,0,1-2.282,2.286H6.782A2.284,2.284,0,0,1,4.5,15.964H5.641a1.142,1.142,0,0,0,1.141,1.143h9.129a1.142,1.142,0,0,0,1.141-1.143V4.536a1.142,1.142,0,0,0-1.141-1.143H6.782A1.142,1.142,0,0,0,5.641,4.536H4.5A2.284,2.284,0,0,1,6.782,2.25Z" transform="translate(-3.337 -2.25)" fill="#6c6c6c"/>
      <path id="패스_568" data-name="패스 568" d="M3.413,10.127V9.564a.582.582,0,0,1,1.163,0v.564h.582a.564.564,0,1,1,0,1.127H2.832a.564.564,0,1,1,0-1.127Zm0,3.382v-.564a.582.582,0,0,1,1.163,0v.564h.582a.564.564,0,1,1,0,1.127H2.832a.564.564,0,1,1,0-1.127Zm0,3.382v-.564a.582.582,0,0,1,1.163,0v.564h.582a.564.564,0,1,1,0,1.127H2.832a.564.564,0,1,1,0-1.127Z" transform="translate(-2.25 -5.51)" fill="#6c6c6c"/>
    </g>
    <path id="패스_569" data-name="패스 569" d="M0,0H20V20H0Z" transform="translate(-59 483.2)" fill="none" opacity="0.5"/>
  </g>
</svg>
