<svg xmlns="http://www.w3.org/2000/svg" width="20" height="20" viewBox="0 0 20 20">
  <g id="그룹_6" data-name="그룹 6" transform="translate(105 -297)">
    <path id="send-alt" d="M20.313,4.692a.667.667,0,0,0-.7-.153L4.947,9.872a.667.667,0,0,0,0,1.247l6.4,2.56,2.56,6.4a.643.643,0,0,0,1.213-.02L20.452,5.392a.667.667,0,0,0-.14-.7ZM14.506,17.965,12.646,13.3l3.193-3.193-.94-.94-3.22,3.22L7.04,10.5l11.686-4.22Z" transform="translate(-107.507 294.502)" fill="#6c6c6c"/>
    <rect id="사각형_1027" data-name="사각형 1027" width="20" height="20" transform="translate(-105 297)" fill="none" opacity="0.5"/>
  </g>
</svg>
