<svg xmlns="http://www.w3.org/2000/svg" width="30" height="30" viewBox="0 0 30 30">
  <g id="그룹_2" data-name="그룹 2" transform="translate(-52 -276)">
    <path id="paperclip" d="M8.164,24.91A6.937,6.937,0,0,1,3.259,13.068L13.287,3.041,14.441,4.2,4.413,14.223a5.3,5.3,0,1,0,7.5,7.5l10.6-10.605a3.673,3.673,0,1,0-5.194-5.194l-10.6,10.6a2.041,2.041,0,1,0,2.885,2.885l9.163-9.162,1.154,1.154L10.761,20.57a3.672,3.672,0,1,1-5.194-5.194l10.6-10.605a5.3,5.3,0,1,1,7.5,7.5L13.07,22.878A6.891,6.891,0,0,1,8.164,24.91Z" transform="translate(53.772 277.024)" fill="#6c6c6c"/>
    <rect id="사각형_1023" data-name="사각형 1023" width="30" height="30" transform="translate(52 276)" fill="none" opacity="0.5"/>
  </g>
</svg>
