<svg xmlns="http://www.w3.org/2000/svg" width="20" height="20" viewBox="0 0 20 20">
  <g id="그룹_11" data-name="그룹 11" transform="translate(-20 -420)">
    <path id="ban" d="M14.782,3.468a8,8,0,1,0,0,11.314,8,8,0,0,0,0-11.314ZM9.125,2.192A6.9,6.9,0,0,1,13.643,3.87L3.87,13.643A6.93,6.93,0,0,1,9.125,2.192Zm0,13.867a6.9,6.9,0,0,1-4.5-1.663l9.77-9.77A6.93,6.93,0,0,1,9.125,16.058Z" transform="translate(20.875 420.875)" fill="#0575e6"/>
    <rect id="사각형_1029" data-name="사각형 1029" width="20" height="20" transform="translate(20 420)" fill="none" opacity="0.5"/>
  </g>
</svg>
