<svg xmlns="http://www.w3.org/2000/svg" width="20" height="20" viewBox="0 0 20 20">
  <g id="그룹_826" data-name="그룹 826" transform="translate(20) rotate(90)">
    <g id="그룹_370" data-name="그룹 370">
      <g id="사각형_1076" data-name="사각형 1076" fill="#fff" stroke="#c2c2c2" stroke-width="1">
        <rect width="20" height="20" rx="2" stroke="none"/>
        <rect x="0.5" y="0.5" width="19" height="19" rx="1.5" fill="none"/>
      </g>
    </g>
    <path id="패스_463" data-name="패스 463" d="M.12,11.413a.4.4,0,0,0,.29.13.4.4,0,0,0,.29-.13L5.619,6.086a.47.47,0,0,0,0-.629L.7.13a.388.388,0,0,0-.58,0,.471.471,0,0,0,0,.629L4.749,5.772.12,10.784a.47.47,0,0,0,0,.629Z" transform="translate(7.093 4.191)" fill="#565656" fill-rule="evenodd"/>
  </g>
</svg>
