<svg id="그룹_372" data-name="그룹 372" xmlns="http://www.w3.org/2000/svg" width="20" height="20" viewBox="0 0 20 20">
  <g id="그룹_370" data-name="그룹 370">
    <g id="사각형_1076" data-name="사각형 1076" fill="#fff" stroke="#c2c2c2" stroke-width="1">
      <rect width="20" height="20" rx="2" stroke="none"/>
      <rect x="0.5" y="0.5" width="19" height="19" rx="1.5" fill="none"/>
    </g>
  </g>
  <path id="패스_463" data-name="패스 463" d="M.12,11.37a.393.393,0,0,0,.289.13A.393.393,0,0,0,.7,11.37L5.6,6.063a.469.469,0,0,0,0-.626L.7.13A.387.387,0,0,0,.12.13a.469.469,0,0,0,0,.626L4.731,5.75.12,10.744a.469.469,0,0,0,0,.626Z" transform="translate(7.141 4.25)" fill="#565656" fill-rule="evenodd"/>
</svg>
