<svg xmlns="http://www.w3.org/2000/svg" width="36" height="36" viewBox="0 0 36 36">
  <g id="그룹_1030" data-name="그룹 1030" transform="translate(-109 -143)">
    <path id="star" d="M28.8,10.644a1.25,1.25,0,0,1-.45.83L22.067,17.6l1.489,8.653a2.572,2.572,0,0,1,.018.346,1.021,1.021,0,0,1-.182.614.612.612,0,0,1-.529.251,1.4,1.4,0,0,1-.692-.208L14.4,23.174,6.629,27.258a1.469,1.469,0,0,1-.692.208.628.628,0,0,1-.545-.251,1.025,1.025,0,0,1-.182-.614,2.829,2.829,0,0,1,.034-.346L6.733,17.6l-6.3-6.126A1.318,1.318,0,0,1,0,10.644q0-.64.97-.8L9.658,8.585,13.552.71Q13.88,0,14.4,0t.848.71l3.894,7.875L27.83,9.848q.97.156.97.8Z" transform="translate(112.6 147.267)" fill="#6c6c6c"/>
    <rect id="사각형_3" data-name="사각형 3" width="36" height="36" transform="translate(109 143)" fill="none" opacity="0.5"/>
  </g>
</svg>
