<svg xmlns="http://www.w3.org/2000/svg" width="20" height="20" viewBox="0 0 20 20">
  <g id="그룹_759" data-name="그룹 759" transform="translate(-342 -260)">
    <path id="star" d="M16,5.913a.694.694,0,0,1-.25.461l-3.49,3.4.827,4.807a1.429,1.429,0,0,1,.01.192.567.567,0,0,1-.1.341.34.34,0,0,1-.294.14.776.776,0,0,1-.384-.116L8,12.874,3.683,15.144a.816.816,0,0,1-.384.116.349.349,0,0,1-.3-.14.569.569,0,0,1-.1-.341,1.572,1.572,0,0,1,.019-.192L3.74,9.778l-3.5-3.4A.732.732,0,0,1,0,5.913q0-.356.539-.442l4.827-.7L7.529.394Q7.711,0,8,0t.471.394l2.163,4.375,4.827.7q.539.087.539.442Z" transform="translate(344 262.121)" fill="#fee500"/>
    <rect id="사각형_3" data-name="사각형 3" width="20" height="20" transform="translate(342 260)" fill="none" opacity="0.5"/>
  </g>
</svg>
