<svg xmlns="http://www.w3.org/2000/svg" width="20" height="20" viewBox="0 0 20 20">
  <g id="그룹_352" data-name="그룹 352" transform="translate(-53 -239.7)">
    <path id="star" d="M17.059,7.575a1.351,1.351,0,0,0-1.072-.92l-3.864-.628L10.332,2.547a1.357,1.357,0,0,0-2.413,0L6.128,6.028l-3.864.628a1.357,1.357,0,0,0-.745,2.294l2.757,2.779-.6,3.868a1.356,1.356,0,0,0,1.952,1.418l3.495-1.763,3.495,1.763A1.356,1.356,0,0,0,14.572,15.6l-.6-3.868,2.757-2.779A1.351,1.351,0,0,0,17.059,7.575ZM15.975,8.2l-3.136,3.161.679,4.4a.289.289,0,0,1-.417.3L9.126,14.057,5.15,16.063a.289.289,0,0,1-.417-.3l.679-4.4L2.277,8.2a.29.29,0,0,1,.159-.49l4.395-.714L8.868,3.035a.29.29,0,0,1,.515,0L11.42,6.994l4.395.714a.29.29,0,0,1,.159.49Z" transform="translate(53.874 240.214)" fill="#d0d0d0"/>
    <rect id="사각형_3" data-name="사각형 3" width="20" height="20" transform="translate(53 239.7)" fill="none" opacity="0.5"/>
  </g>
</svg>
