<svg xmlns="http://www.w3.org/2000/svg" xmlns:xlink="http://www.w3.org/1999/xlink" width="24" height="24" viewBox="0 0 24 24">
  <defs>
    <filter id="play-circle" x="0" y="0" width="24" height="24" filterUnits="userSpaceOnUse">
      <feOffset dx="1" dy="1" input="SourceAlpha"/>
      <feGaussianBlur stdDeviation="2" result="blur"/>
      <feFlood flood-opacity="0.161"/>
      <feComposite operator="in" in2="blur"/>
      <feComposite in="SourceGraphic"/>
    </filter>
  </defs>
  <g id="그룹_2078" data-name="그룹 2078" transform="translate(-3425 -1804)">
    <rect id="ZIP_아이콘" data-name="ZIP 아이콘" width="20" height="20" rx="4" transform="translate(3426 1805)" fill="#1c9ee9"/>
    <g transform="matrix(1, 0, 0, 1, 3425, 1804)" filter="url(#play-circle)">
      <path id="play-circle-2" data-name="play-circle" d="M9.375,3.375a6,6,0,1,0,6,6A6.007,6.007,0,0,0,9.375,3.375Zm2.157,6.268-3.3,1.994a.311.311,0,0,1-.471-.269V7.381a.311.311,0,0,1,.471-.269l3.3,1.994a.314.314,0,0,1,0,.537Z" transform="translate(1.63 1.63)" fill="#fff"/>
    </g>
  </g>
</svg>
