<svg xmlns="http://www.w3.org/2000/svg" xmlns:xlink="http://www.w3.org/1999/xlink" width="22.286" height="24" viewBox="0 0 22.286 24">
  <defs>
    <filter id="패스_651" x="0" y="0" width="22.286" height="24" filterUnits="userSpaceOnUse">
      <feOffset dx="1" dy="1" input="SourceAlpha"/>
      <feGaussianBlur stdDeviation="2" result="blur"/>
      <feFlood flood-opacity="0.161"/>
      <feComposite operator="in" in2="blur"/>
      <feComposite in="SourceGraphic"/>
    </filter>
  </defs>
  <g id="그룹_2081" data-name="그룹 2081" transform="translate(-3455.857 -1804)">
    <rect id="ZIP_아이콘" data-name="ZIP 아이콘" width="20" height="20" rx="4" transform="translate(3456 1805)" fill="#2e5ea2"/>
    <g id="file-text-fill" transform="translate(3456.357 1806.75)">
      <g transform="matrix(1, 0, 0, 1, -0.5, -2.75)" filter="url(#패스_651)">
        <path id="패스_651-2" data-name="패스 651" d="M13.071,2.25H6.214A1.714,1.714,0,0,0,4.5,3.964v8.571A1.714,1.714,0,0,0,6.214,14.25h6.857a1.714,1.714,0,0,0,1.714-1.714V3.964A1.714,1.714,0,0,0,13.071,2.25Zm-6,2.571a.429.429,0,0,0,0,.857h5.143a.429.429,0,0,0,0-.857ZM6.643,6.964a.429.429,0,0,1,.429-.429h5.143a.429.429,0,0,1,0,.857H7.071A.429.429,0,0,1,6.643,6.964ZM7.071,8.25a.429.429,0,0,0,0,.857h5.143a.429.429,0,0,0,0-.857Zm0,1.714a.429.429,0,1,0,0,.857H9.643a.429.429,0,1,0,0-.857Z" transform="translate(0.5 2.75)" fill="#fff" fill-rule="evenodd"/>
      </g>
    </g>
  </g>
</svg>
