<svg xmlns="http://www.w3.org/2000/svg" width="28.799" height="27.629" viewBox="0 0 28.799 27.629">
  <path id="star" d="M29.8,12.186a2.432,2.432,0,0,0-1.93-1.655L20.92,9.4,17.7,3.135a2.442,2.442,0,0,0-4.343,0L10.13,9.4,3.175,10.53A2.442,2.442,0,0,0,1.833,14.66l4.962,5L5.721,26.625a2.441,2.441,0,0,0,3.513,2.552L15.525,26l6.291,3.174a2.441,2.441,0,0,0,3.513-2.552l-1.074-6.963,4.962-5A2.432,2.432,0,0,0,29.8,12.186Zm-1.952,1.122L22.209,19l1.222,7.921a.521.521,0,0,1-.751.545l-7.155-3.61L8.37,27.464a.521.521,0,0,1-.751-.545L8.841,19,3.2,13.308a.522.522,0,0,1,.287-.882l7.91-1.286,3.667-7.126a.521.521,0,0,1,.928,0l3.667,7.126,7.91,1.286a.522.522,0,0,1,.287.882Z" transform="translate(-1.127 -1.811)" fill="#0575e6"/>
</svg>
