<svg xmlns="http://www.w3.org/2000/svg" width="20" height="20" viewBox="0 0 20 20">
  <g id="그룹_2329" data-name="그룹 2329" transform="translate(2078 -942)">
    <g id="pen" transform="translate(-2078.248 941.943)">
      <path id="패스_590" data-name="패스 590" d="M7.6,17.707a1.136,1.136,0,0,1-.443.275L3.745,19.118a1.136,1.136,0,0,1-1.439-1.437l1.136-3.409a1.136,1.136,0,0,1,.275-.444l8.855-8.855a2.272,2.272,0,0,1,3.213,0l.666.666a2.273,2.273,0,0,1,0,3.213L7.6,17.707ZM4.522,14.631l8.854-8.855a1.136,1.136,0,0,1,1.606,0l.666.666a1.136,1.136,0,0,1,0,1.606L6.794,16.9,3.385,18.04Z" transform="translate(0 -1.119)" fill="#4b4b4b" fill-rule="evenodd"/>
      <path id="패스_591" data-name="패스 591" d="M16.738,4.478a.565.565,0,0,0-.8,0L12.215,8.2a.566.566,0,1,1-.8-.8l3.725-3.724a1.7,1.7,0,0,1,2.4,0l.331.33a.566.566,0,0,1-.8.8l-.331-.331Z" transform="translate(-4.442 -0.559)" fill="#4b4b4b" fill-rule="evenodd"/>
      <path id="패스_592" data-name="패스 592" d="M28.462,2.388a1.131,1.131,0,0,1,1.6,0l.034.034a1.131,1.131,0,0,1,.034,1.564L28.7,5.547,27,3.85Z" transform="translate(-12.241)" fill="#4b4b4b"/>
    </g>
    <rect id="사각형_1025" data-name="사각형 1025" width="20" height="20" transform="translate(-2078 942)" fill="none" opacity="0.5"/>
  </g>
</svg>
