<svg xmlns="http://www.w3.org/2000/svg" width="30" height="30" viewBox="0 0 30 30">
  <g id="그룹_1" data-name="그룹 1" transform="translate(-53 -240)">
    <path id="star" d="M25.025,10.457a2.027,2.027,0,0,0-1.609-1.38l-5.8-.942L14.934,2.915a2.035,2.035,0,0,0-3.619,0L8.629,8.136l-5.8.942a2.035,2.035,0,0,0-1.118,3.441l4.135,4.169-.9,5.8a2.034,2.034,0,0,0,2.928,2.127l5.242-2.645,5.242,2.645A2.034,2.034,0,0,0,21.3,22.49l-.9-5.8,4.135-4.169A2.027,2.027,0,0,0,25.025,10.457Zm-1.626.935-4.7,4.742,1.018,6.6a.434.434,0,0,1-.626.454L13.125,20.18,7.163,23.189a.434.434,0,0,1-.626-.454l1.018-6.6-4.7-4.742a.435.435,0,0,1,.239-.735L9.683,9.585l3.056-5.939a.434.434,0,0,1,.773,0l3.056,5.939,6.592,1.072a.435.435,0,0,1,.239.735Z" transform="translate(54.874 241.677)" fill="#6c6c6c"/>
    <rect id="사각형_3" data-name="사각형 3" width="30" height="30" transform="translate(53 240)" fill="none" opacity="0.5"/>
  </g>
</svg>
