<svg xmlns="http://www.w3.org/2000/svg" width="20" height="20" viewBox="0 0 20 20">
  <g id="그룹_481" data-name="그룹 481" transform="translate(158 -1255)">
    <g id="person-check" transform="translate(-156 1259)">
      <path id="패스_311" data-name="패스 311" d="M11,16.5a.979.979,0,0,0,1-1c0-1-1-4-6-4s-6,3-6,4a.979.979,0,0,0,1,1ZM1,15.556v0Zm.017-.056h9.956l.014,0,.008,0a2.67,2.67,0,0,0-.832-1.664A5.629,5.629,0,0,0,6,12.5a5.623,5.623,0,0,0-4.168,1.332A2.677,2.677,0,0,0,1,15.5l.022,0ZM11,15.556v0ZM6,9.5a2,2,0,1,0-2-2A2,2,0,0,0,6,9.5Zm3-2a3,3,0,1,1-3-3A3,3,0,0,1,9,7.5Zm6.853.146a.5.5,0,0,1,0,.708l-3,3a.5.5,0,0,1-.708,0l-1.5-1.5a.5.5,0,1,1,.708-.708L12.5,10.293l2.646-2.647a.5.5,0,0,1,.708,0Z" transform="translate(0 -4.5)" fill="#6c6c6c" fill-rule="evenodd"/>
    </g>
    <rect id="사각형_1028" data-name="사각형 1028" width="20" height="20" transform="translate(-158 1255)" fill="none"/>
  </g>
</svg>
