<svg xmlns="http://www.w3.org/2000/svg" width="20" height="20" viewBox="0 0 20 20">
  <g id="그룹_473" data-name="그룹 473" transform="translate(186 -1232)">
    <g id="card-list" transform="translate(-184 1236)">
      <path id="패스_84" data-name="패스 84" d="M14.5,5.5H1.5A.5.5,0,0,0,1,6v9a.5.5,0,0,0,.5.5h13A.5.5,0,0,0,15,15V6A.5.5,0,0,0,14.5,5.5Zm-13-1A1.5,1.5,0,0,0,0,6v9a1.5,1.5,0,0,0,1.5,1.5h13A1.5,1.5,0,0,0,16,15V6a1.5,1.5,0,0,0-1.5-1.5Z" transform="translate(0 -4.5)" fill="#0575e6" fill-rule="evenodd"/>
      <path id="패스_85" data-name="패스 85" d="M11.25,14.243a.5.5,0,0,1,.5-.5h6.985a.5.5,0,1,1,0,1H11.749A.5.5,0,0,1,11.25,14.243Zm0-2.495a.5.5,0,0,1,.5-.5h6.985a.5.5,0,1,1,0,1H11.749A.5.5,0,0,1,11.25,11.749Zm0,4.989a.5.5,0,0,1,.5-.5h6.985a.5.5,0,1,1,0,1H11.749A.5.5,0,0,1,11.25,16.738Z" transform="translate(-6.239 -8.243)" fill="#0575e6" fill-rule="evenodd"/>
      <path id="패스_86" data-name="패스 86" d="M7.748,11.749a.5.5,0,1,1-.5-.5A.5.5,0,0,1,7.748,11.749Z" transform="translate(-3.75 -8.249)" fill="#0575e6"/>
      <path id="패스_87" data-name="패스 87" d="M7.748,17.374a.5.5,0,1,1-.5-.5A.5.5,0,0,1,7.748,17.374Z" transform="translate(-3.75 -11.374)" fill="#0575e6"/>
      <path id="패스_88" data-name="패스 88" d="M7.748,23a.5.5,0,1,1-.5-.5A.5.5,0,0,1,7.748,23Z" transform="translate(-3.75 -14.498)" fill="#0575e6"/>
    </g>
    <rect id="사각형_38" data-name="사각형 38" width="20" height="20" transform="translate(-186 1232)" fill="none"/>
  </g>
</svg>
