<svg id="check-circle" xmlns="http://www.w3.org/2000/svg" width="20" height="20" viewBox="0 0 20 20">
  <path id="패스_584" data-name="패스 584" d="M10,18.75A8.75,8.75,0,1,0,1.25,10,8.75,8.75,0,0,0,10,18.75ZM10,20A10,10,0,1,0,0,10,10,10,0,0,0,10,20Z" fill="#0575e6" fill-rule="evenodd"/>
  <path id="패스_585" data-name="패스 585" d="M18.224,10.971A.985.985,0,1,1,19.63,12.35L14.391,18.9a.985.985,0,0,1-1.418.026L9.5,15.452a.985.985,0,1,1,1.391-1.391l2.749,2.747L18.2,11a.31.31,0,0,1,.026-.029Z" transform="translate(-4.347 -4.948)" fill="#0575e6" fill-rule="evenodd"/>
</svg>
