<svg xmlns="http://www.w3.org/2000/svg" width="20" height="20" viewBox="0 0 20 20">
  <g id="image" transform="translate(-4.5 -4.5)">
    <path id="패스_578" data-name="패스 578" d="M20.5,14A2.5,2.5,0,1,0,18,11.5,2.5,2.5,0,0,0,20.5,14Zm0-3.333a.833.833,0,1,1-.833.833A.833.833,0,0,1,20.5,10.667Z" transform="translate(-3.5 -1.167)" fill="#ff5d5d"/>
    <path id="패스_579" data-name="패스 579" d="M22.833,4.5H6.167A1.667,1.667,0,0,0,4.5,6.167V22.833A1.667,1.667,0,0,0,6.167,24.5H22.833A1.667,1.667,0,0,0,24.5,22.833V6.167A1.667,1.667,0,0,0,22.833,4.5Zm0,18.333H6.167v-5l4.167-4.167,4.659,4.659a1.667,1.667,0,0,0,2.35,0L18.667,17l4.167,4.167Zm0-4.025-2.992-2.992a1.667,1.667,0,0,0-2.35,0l-1.325,1.325-4.659-4.659a1.667,1.667,0,0,0-2.35,0L6.167,15.475V6.167H22.833Z" fill="#ff5d5d"/>
  </g>
</svg>
