<svg xmlns="http://www.w3.org/2000/svg" width="20" height="20" viewBox="0 0 20 20">
  <g id="그룹_10" data-name="그룹 10" transform="translate(-20 -452)">
    <g id="trash-line" transform="translate(19.055 452)">
      <path id="패스_292" data-name="패스 292" d="M16.57,22.615H7.43A1.465,1.465,0,0,1,6,21.115V11.23H7v9.885a.465.465,0,0,0,.43.5h9.14a.465.465,0,0,0,.43-.5V11.23h1v9.885A1.465,1.465,0,0,1,16.57,22.615Z" transform="translate(-1 -4.615)" fill="#0575e6"/>
      <path id="패스_293" data-name="패스 293" d="M17.39,8H4.5a.5.5,0,1,1,0-1H17.39a.5.5,0,0,1,0,1Z" transform="translate(0 -2.5)" fill="#0575e6"/>
      <path id="패스_294" data-name="패스 294" d="M21,13h1v7.5H21Z" transform="translate(-8.5 -5.5)" fill="#0575e6"/>
      <path id="패스_295" data-name="패스 295" d="M13,13h1v7.5H13Z" transform="translate(-4.5 -5.5)" fill="#0575e6"/>
      <path id="패스_296" data-name="패스 296" d="M18,3.93h-.95V3h-3.1v.93H13V3a1,1,0,0,1,.95-1h3.1A1,1,0,0,1,18,3Z" transform="translate(-4.5 0)" fill="#0575e6"/>
    </g>
    <rect id="사각형_1032" data-name="사각형 1032" width="20" height="20" transform="translate(20 452)" fill="none" opacity="0.5"/>
  </g>
</svg>
