<svg xmlns="http://www.w3.org/2000/svg" width="20" height="20" viewBox="0 0 20 20">
  <g id="그룹_2069" data-name="그룹 2069" transform="translate(-7745 -698)">
    <g id="person-check" transform="translate(7746 696.75)">
      <path id="패스_643" data-name="패스 643" d="M12.374,18A1.1,1.1,0,0,0,13.5,16.874c0-1.125-1.125-4.5-6.75-4.5S0,15.75,0,16.874A1.1,1.1,0,0,0,1.125,18ZM1.13,16.937v0Zm.019-.063h11.2l.016,0,.009,0A3,3,0,0,0,11.439,15c-.734-.733-2.114-1.5-4.689-1.5s-3.955.765-4.689,1.5a3.012,3.012,0,0,0-.936,1.872l.024,0Zm11.221.063v0ZM6.75,10.125A2.25,2.25,0,1,0,4.5,7.875,2.25,2.25,0,0,0,6.75,10.125Zm3.375-2.25A3.375,3.375,0,1,1,6.75,4.5,3.375,3.375,0,0,1,10.125,7.875Zm7.71.164a.562.562,0,0,1,0,.8L14.46,12.21a.562.562,0,0,1-.8,0l-1.687-1.687a.563.563,0,1,1,.8-.8l1.289,1.29,2.977-2.978a.562.562,0,0,1,.8,0Z" transform="translate(0)" fill="#1c1c1c" fill-rule="evenodd"/>
    </g>
    <rect id="사각형_3" data-name="사각형 3" width="20" height="20" transform="translate(7745 698)" fill="none" opacity="0.5"/>
  </g>
</svg>
