<svg xmlns="http://www.w3.org/2000/svg" width="16" height="16" viewBox="0 0 16 16">
  <g id="그룹_1986" data-name="그룹 1986" transform="translate(-139 -518)">
    <g id="envelope-open" transform="translate(141 519.625)">
      <path id="패스_640" data-name="패스 640" d="M6.353,1.289a.75.75,0,0,0-.7,0l-4.5,2.4a.75.75,0,0,0-.4.661v.613l4.293,2.6L6,6.988l.957.575,4.293-2.6V4.35a.75.75,0,0,0-.4-.661l-4.5-2.4Zm4.9,4.552L7.685,8l3.565,2.139V5.84ZM11.224,11,6,7.862.776,11a.75.75,0,0,0,.724.553h9A.75.75,0,0,0,11.224,11ZM.75,10.138,4.315,8,.75,5.84v4.3ZM5.294.626a1.5,1.5,0,0,1,1.411,0l4.5,2.4A1.5,1.5,0,0,1,12,4.35V10.8a1.5,1.5,0,0,1-1.5,1.5h-9A1.5,1.5,0,0,1,0,10.8V4.35A1.5,1.5,0,0,1,.794,3.026l4.5-2.4Z" fill="#6d6d6d" fill-rule="evenodd"/>
    </g>
    <rect id="사각형_1023" data-name="사각형 1023" width="16" height="16" transform="translate(139 518)" fill="none" opacity="0.5"/>
  </g>
</svg>
