<svg id="구성_요소_41_9" data-name="구성 요소 41 – 9" xmlns="http://www.w3.org/2000/svg" width="24" height="24" viewBox="0 0 24 24">
  <g id="list" transform="translate(-3.625 -2.932)">
    <path id="패스_557" data-name="패스 557" d="M5.625,22.2a.909.909,0,0,1,.909-.909H24.716a.909.909,0,1,1,0,1.818H6.534A.909.909,0,0,1,5.625,22.2Zm0-7.273a.909.909,0,0,1,.909-.909H24.716a.909.909,0,0,1,0,1.818H6.534A.909.909,0,0,1,5.625,14.932Zm0-7.273a.909.909,0,0,1,.909-.909H24.716a.909.909,0,0,1,0,1.818H6.534A.909.909,0,0,1,5.625,7.659Z" fill="#1c1c1c" fill-rule="evenodd"/>
  </g>
  <rect id="사각형_1122" data-name="사각형 1122" width="24" height="24" fill="none" opacity="0.5"/>
</svg>
