<svg id="구성_요소_42_1" data-name="구성 요소 42 – 1" xmlns="http://www.w3.org/2000/svg" width="24" height="24" viewBox="0 0 24 24">
  <g id="__TEMP__SVG__" transform="translate(-2 25.932) rotate(-90)">
    <path id="패스_609" data-name="패스 609" d="M9.695,9.979A2.857,2.857,0,0,0,7.552,7.2V4.714a.714.714,0,1,0-1.429,0V7.2a2.857,2.857,0,0,0,0,5.557V23.286a.714.714,0,1,0,1.429,0V12.757A2.857,2.857,0,0,0,9.695,9.979ZM6.838,11.407a.594.594,0,1,1,0,.021Z" transform="translate(0 0)" fill="#6d6d6d"/>
    <path id="패스_610" data-name="패스 610" d="M29.695,12.45a2.857,2.857,0,0,0-2.143-2.779V4.714a.714.714,0,1,0-1.429,0V9.671a2.857,2.857,0,0,0,0,5.557v8.057a.714.714,0,1,0,1.429,0V15.229A2.857,2.857,0,0,0,29.695,12.45Zm-2.857,1.429a.594.594,0,1,1,0,.029Z" transform="translate(-5.763 0)" fill="#6d6d6d"/>
    <path id="패스_611" data-name="패스 611" d="M19.695,18.643a2.857,2.857,0,0,0-2.143-2.779V4.714a.714.714,0,1,0-1.429,0v11.15a2.857,2.857,0,0,0,0,5.557v1.864a.714.714,0,1,0,1.429,0V21.421A2.857,2.857,0,0,0,19.695,18.643Zm-2.857,1.429a.594.594,0,1,1,0,.021Z" transform="translate(-2.882 0)" fill="#6d6d6d"/>
  </g>
  <rect id="사각형_1122" data-name="사각형 1122" width="24" height="24" fill="none" opacity="0.5"/>
</svg>
