<svg xmlns="http://www.w3.org/2000/svg" width="20" height="20" viewBox="0 0 20 20">
  <g id="그룹_1961" data-name="그룹 1961" transform="translate(-638 8258) rotate(-90)">
    <path id="패스_463" data-name="패스 463" d="M.167.181A.547.547,0,0,1,.569,0a.547.547,0,0,1,.4.181L7.788,7.565a.652.652,0,0,1,0,.871L.971,15.82a.538.538,0,0,1-.8,0,.653.653,0,0,1,0-.871L6.582,8,.167,1.052A.642.642,0,0,1,0,.616.642.642,0,0,1,.167.18Z" transform="translate(8256 644) rotate(90)" fill="#b0b0b0" fill-rule="evenodd"/>
    <rect id="사각형_3" data-name="사각형 3" width="20" height="20" transform="translate(8238 638)" fill="none" opacity="0.5"/>
  </g>
</svg>
