<svg xmlns="http://www.w3.org/2000/svg" width="20" height="20" viewBox="0 0 20 20">
  <g id="그룹_1961" data-name="그룹 1961" transform="translate(0 20) rotate(-90)">
    <path id="패스_463" data-name="패스 463" d="M.167,15.819a.547.547,0,0,0,.4.181.547.547,0,0,0,.4-.181L7.788,8.435a.652.652,0,0,0,0-.871L.971.18a.538.538,0,0,0-.8,0,.653.653,0,0,0,0,.871L6.582,8,.167,14.948a.652.652,0,0,0,0,.871Z" transform="translate(2 14) rotate(-90)" fill="#b0b0b0" fill-rule="evenodd"/>
    <rect id="사각형_3" data-name="사각형 3" width="20" height="20" fill="none" opacity="0.5"/>
  </g>
</svg>
