<svg id="구성_요소_23_1" data-name="구성 요소 23 – 1" xmlns="http://www.w3.org/2000/svg" width="24" height="24" viewBox="0 0 24 24">
  <g id="mail-reply" transform="translate(0.375 -0.535)">
    <path id="패스_623" data-name="패스 623" d="M19.232,14.625l-1.01,1.01,1.843,1.847H14.232a2.857,2.857,0,1,0,0,5.714h1.429V21.768H14.232a1.429,1.429,0,0,1,0-2.857h5.834L18.22,20.758l1.012,1.009L22.8,18.2Z" transform="translate(-1.179 -1.375)" fill="#000"/>
    <path id="패스_624" data-name="패스 624" d="M7.339,16.107H3.054l0-10.781,8.167,5.654a.715.715,0,0,0,.813,0L20.2,5.328v6.493h1.429V4.679A1.43,1.43,0,0,0,20.2,3.25H3.054A1.429,1.429,0,0,0,1.625,4.677v11.43a1.43,1.43,0,0,0,1.429,1.429H7.339ZM18.624,4.679l-7,4.846-7-4.846Z" fill="#000"/>
  </g>
  <rect id="사각형_1029" data-name="사각형 1029" width="24" height="24" fill="none" opacity="0.5"/>
</svg>
