<svg xmlns="http://www.w3.org/2000/svg" width="24" height="24" viewBox="0 0 24 24">
  <g id="그룹_1617" data-name="그룹 1617" transform="translate(-2864 -1325)">
    <g id="check-box" transform="translate(2863.562 1325.277)">
      <path id="패스_617" data-name="패스 617" d="M22.818,4.271a.715.715,0,0,1,0,1.011l-10,10a.715.715,0,0,1-1.011,0L7.521,11A.715.715,0,0,1,8.532,9.985l3.78,3.781,9.494-9.5A.715.715,0,0,1,22.818,4.271Z" transform="translate(-0.589 -0.196)" fill="#fff" fill-rule="evenodd"/>
      <path id="패스_618" data-name="패스 618" d="M2.438,18.866A2.143,2.143,0,0,0,4.58,21.009H18.866a2.143,2.143,0,0,0,2.143-2.143V11.723a.715.715,0,0,0-1.429,0v7.143a.715.715,0,0,1-.715.715H4.58a.715.715,0,0,1-.715-.715V4.58a.715.715,0,0,1,.715-.715H16.009a.715.715,0,0,0,0-1.429H4.58A2.143,2.143,0,0,0,2.438,4.58Z" fill="#fff" fill-rule="evenodd"/>
    </g>
    <rect id="사각형_1548" data-name="사각형 1548" width="24" height="24" transform="translate(2864 1325)" fill="none" opacity="0.5"/>
  </g>
</svg>
