<svg xmlns="http://www.w3.org/2000/svg" width="24" height="24" viewBox="0 0 24 24">
  <g id="그룹_1703" data-name="그룹 1703" transform="translate(-6387 -596)">
    <g id="person-plus" transform="translate(6388 595.25)">
      <path id="패스_630" data-name="패스 630" d="M15.125,21A1.347,1.347,0,0,0,16.5,19.625c0-1.375-1.375-5.5-8.25-5.5S0,18.25,0,19.625A1.347,1.347,0,0,0,1.375,21ZM1.382,19.7v0Zm.024-.077H15.1l.02,0,.011,0a3.671,3.671,0,0,0-1.144-2.288c-.9-.9-2.584-1.831-5.732-1.831s-4.835.935-5.731,1.831A3.682,3.682,0,0,0,1.375,19.62l.03.005ZM15.12,19.7v0ZM8.25,11.375A2.75,2.75,0,1,0,5.5,8.625,2.75,2.75,0,0,0,8.25,11.375Zm4.125-2.75A4.125,4.125,0,1,1,8.25,4.5,4.125,4.125,0,0,1,12.375,8.625Zm6.187,0a.687.687,0,0,1,.688.688v2.75a.687.687,0,0,1-.687.688h-2.75a.688.688,0,0,1,0-1.375h2.062V9.313A.688.688,0,0,1,18.563,8.625Z" transform="translate(0 0)" fill="#fff" fill-rule="evenodd"/>
      <path id="패스_631" data-name="패스 631" d="M29.25,16.438a.688.688,0,0,1,.688-.687h2.75a.687.687,0,1,1,0,1.375H30.625v2.063a.688.688,0,0,1-1.375,0Z" transform="translate(-11.375 -4.375)" fill="#fff" fill-rule="evenodd"/>
    </g>
    <rect id="사각형_1122" data-name="사각형 1122" width="24" height="24" transform="translate(6387 596)" fill="none" opacity="0.5"/>
  </g>
</svg>
