<svg xmlns="http://www.w3.org/2000/svg" width="24" height="24" viewBox="0 0 24 24">
  <g id="그룹_1839" data-name="그룹 1839" transform="translate(-6524 -2223)">
    <g id="그룹_1761" data-name="그룹 1761" transform="translate(411 911)">
      <rect id="사각형_1029" data-name="사각형 1029" width="24" height="24" transform="translate(6113 1312)" fill="none" opacity="0.5"/>
      <path id="star" d="M21.042,9.016a1.689,1.689,0,0,0-1.34-1.15l-4.83-.785L12.633,2.731a1.7,1.7,0,0,0-3.016,0L7.378,7.082l-4.83.785a1.7,1.7,0,0,0-.932,2.868l3.446,3.474-.746,4.836a1.695,1.695,0,0,0,2.44,1.772l4.369-2.2,4.369,2.2a1.7,1.7,0,0,0,2.44-1.772l-.746-4.836,3.446-3.474A1.689,1.689,0,0,0,21.042,9.016ZM19.687,9.8l-3.919,3.951.849,5.5a.361.361,0,0,1-.521.379l-4.969-2.507L6.157,19.626a.361.361,0,0,1-.521-.379l.849-5.5L2.564,9.8a.363.363,0,0,1,.2-.613l5.493-.893L10.8,3.341a.362.362,0,0,1,.644,0l2.546,4.949,5.493.893a.363.363,0,0,1,.2.613Z" transform="translate(6113.874 1312.595)" fill="#fff"/>
    </g>
    <circle id="타원_3" data-name="타원 3" cx="3" cy="3" r="3" transform="translate(6539 2240)" fill="#f25757"/>
  </g>
</svg>
