<svg xmlns="http://www.w3.org/2000/svg" width="20" height="20" viewBox="0 0 20 20">
  <g id="그룹_1942" data-name="그룹 1942" transform="translate(-143 -545)">
    <g id="telephone" transform="translate(143.876 545.874)">
      <path id="패스_632" data-name="패스 632" d="M4.777,2.454a.678.678,0,0,0-1.014-.063L2.728,3.426a1.709,1.709,0,0,0-.449,1.768A17.566,17.566,0,0,0,6.447,11.8a17.568,17.568,0,0,0,6.608,4.167,1.711,1.711,0,0,0,1.768-.449l1.035-1.035a.678.678,0,0,0-.064-1.014l-2.306-1.794a.678.678,0,0,0-.58-.123L10.72,12.1a1.745,1.745,0,0,1-1.658-.459L6.607,9.187A1.745,1.745,0,0,1,6.148,7.53l.547-2.189a.678.678,0,0,0-.123-.58ZM3.009,1.638A1.745,1.745,0,0,1,5.62,1.8L7.413,4.107A1.74,1.74,0,0,1,7.729,5.6L7.182,7.79a.678.678,0,0,0,.178.644l2.457,2.455a.678.678,0,0,0,.644.178l2.189-.547a1.745,1.745,0,0,1,1.494.316l2.306,1.793a1.744,1.744,0,0,1,.163,2.611l-1.035,1.035a2.779,2.779,0,0,1-2.876.7,18.633,18.633,0,0,1-7.009-4.42,18.633,18.633,0,0,1-4.42-7.009,2.78,2.78,0,0,1,.7-2.878L3.01,1.637Z" fill="#6c6c6c" fill-rule="evenodd"/>
    </g>
    <rect id="사각형_3" data-name="사각형 3" width="20" height="20" transform="translate(143 545)" fill="none" opacity="0.5"/>
  </g>
</svg>
