<svg xmlns="http://www.w3.org/2000/svg" width="28" height="28" viewBox="0 0 28 28">
  <g id="그룹_1883" data-name="그룹 1883" transform="translate(-3209 -1599)">
    <g id="그룹_370" data-name="그룹 370" transform="translate(3209 1599.15)">
      <g id="사각형_1076" data-name="사각형 1076" transform="translate(0 -0.15)" fill="#fff" stroke="#dedede" stroke-width="1">
        <rect width="28" height="28" rx="3" stroke="none"/>
        <rect x="0.5" y="0.5" width="27" height="27" rx="2.5" fill="none"/>
      </g>
    </g>
    <g id="그룹_1581" data-name="그룹 1581" transform="translate(3036 1357)">
      <path id="paperclip" d="M5.852,17.62a4.625,4.625,0,0,1-3.27-7.894L9.267,3.041l.769.769L3.352,10.5a3.537,3.537,0,1,0,5,5l7.07-7.07A2.448,2.448,0,1,0,11.96,4.964l-7.07,7.07a1.36,1.36,0,1,0,1.923,1.923l6.108-6.108.769.769L7.584,14.727a2.448,2.448,0,1,1-3.462-3.462l7.07-7.07a3.536,3.536,0,1,1,5,5l-7.07,7.07A4.594,4.594,0,0,1,5.852,17.62Z" transform="translate(177.772 245.669)" fill="#6d6d6d"/>
      <rect id="사각형_1023" data-name="사각형 1023" width="20" height="20" transform="translate(177 246)" fill="none" opacity="0.5"/>
    </g>
  </g>
</svg>
