<svg xmlns="http://www.w3.org/2000/svg" width="24" height="24" viewBox="0 0 24 24">
  <g id="그룹_441" data-name="그룹 441" transform="translate(0 0.149)">
    <g id="calendar4-week" transform="translate(2.383 2.586)">
      <path id="패스_560" data-name="패스 560" d="M16.679,3.441H2.383A1.191,1.191,0,0,0,1.191,4.632v13.1a1.191,1.191,0,0,0,1.191,1.191h14.3a1.191,1.191,0,0,0,1.191-1.191V4.632A1.191,1.191,0,0,0,16.679,3.441ZM2.383,2.25A2.382,2.382,0,0,0,0,4.632v13.1a2.382,2.382,0,0,0,2.383,2.382h14.3a2.382,2.382,0,0,0,2.383-2.382V4.632A2.382,2.382,0,0,0,16.679,2.25Z" transform="translate(0 -1.054)" fill="#626262" fill-rule="evenodd"/>
      <path id="패스_561" data-name="패스 561" d="M16.679,3.446H2.383a1.194,1.194,0,0,0-1.191,1.2v1.2H17.87v-1.2A1.194,1.194,0,0,0,16.679,3.446Zm-14.3-1.2A2.387,2.387,0,0,0,0,4.641V7.033H19.061V4.641A2.387,2.387,0,0,0,16.679,2.25Z" transform="translate(0 -1.054)" fill="#626262" fill-rule="evenodd"/>
      <path id="패스_562" data-name="패스 562" d="M7.344,0a.6.6,0,0,1,.594.6v.6a.594.594,0,1,1-1.189,0V.6A.6.6,0,0,1,7.344,0Zm10.7,0a.6.6,0,0,1,.594.6v.6a.594.594,0,1,1-1.189,0V.6A.6.6,0,0,1,18.043,0Z" transform="translate(-3.163 0)" fill="#626262" fill-rule="evenodd"/>
      <path id="패스_563" data-name="패스 563" d="M16.26,16.348a.6.6,0,0,1,.594-.6h1.189a.6.6,0,0,1,.594.6v1.2a.6.6,0,0,1-.594.6H16.854a.6.6,0,0,1-.594-.6Zm-3.566,0a.6.6,0,0,1,.594-.6h1.189a.6.6,0,0,1,.594.6v1.2a.6.6,0,0,1-.594.6H13.288a.6.6,0,0,1-.594-.6Zm-2.377,3.587a.6.6,0,0,1,.594-.6H12.1a.6.6,0,0,1,.594.6v1.2a.6.6,0,0,1-.594.6H10.911a.6.6,0,0,1-.594-.6Zm-3.566,0a.6.6,0,0,1,.594-.6H8.533a.6.6,0,0,1,.594.6v1.2a.6.6,0,0,1-.594.6H7.344a.6.6,0,0,1-.594-.6Z" transform="translate(-3.163 -7.425)" fill="#626262"/>
    </g>
    <rect id="사각형_1036" data-name="사각형 1036" width="24" height="24" transform="translate(0 -0.15)" fill="none" opacity="0.5"/>
  </g>
</svg>
