<svg xmlns="http://www.w3.org/2000/svg" width="24" height="24" viewBox="0 0 24 24">
  <g id="그룹_439" data-name="그룹 439" transform="translate(0 0.431)">
    <g id="journal" transform="translate(3.063 2.359)">
      <path id="패스_567" data-name="패스 567" d="M7.223,2.25H18.115a2.723,2.723,0,0,1,2.723,2.723V18.588a2.723,2.723,0,0,1-2.723,2.723H7.223A2.723,2.723,0,0,1,4.5,18.588H5.862A1.362,1.362,0,0,0,7.223,19.95H18.115a1.362,1.362,0,0,0,1.362-1.362V4.973a1.362,1.362,0,0,0-1.362-1.362H7.223A1.362,1.362,0,0,0,5.862,4.973H4.5A2.723,2.723,0,0,1,7.223,2.25Z" transform="translate(-3.138 -2.25)" fill="#626262"/>
      <path id="패스_568" data-name="패스 568" d="M3.612,10.362V9.681a.681.681,0,0,1,1.362,0v.681h.681a.681.681,0,1,1,0,1.362H2.931a.681.681,0,1,1,0-1.362Zm0,4.085v-.681a.681.681,0,0,1,1.362,0v.681h.681a.681.681,0,1,1,0,1.362H2.931a.681.681,0,1,1,0-1.362Zm0,4.085V17.85a.681.681,0,0,1,1.362,0v.681h.681a.681.681,0,1,1,0,1.362H2.931a.681.681,0,1,1,0-1.362Z" transform="translate(-2.25 -4.915)" fill="#626262"/>
    </g>
    <rect id="사각형_1033" data-name="사각형 1033" width="24" height="24" transform="translate(0 -0.43)" fill="none" opacity="0.5"/>
  </g>
</svg>
