<svg xmlns="http://www.w3.org/2000/svg" width="24" height="24" viewBox="0 0 24 24">
  <g id="그룹_1519" data-name="그룹 1519" transform="translate(2111 14359)">
    <g id="chat-text" transform="translate(-2109 -14356)">
      <path id="패스_109" data-name="패스 109" d="M3.348,15.868a1.25,1.25,0,0,1,.359,1,13.713,13.713,0,0,1-.5,2.5A14.756,14.756,0,0,0,6.5,18.253a1.25,1.25,0,0,1,.887-.092A10.075,10.075,0,0,0,10,18.5c5,0,8.75-3.509,8.75-7.5S15,3.5,10,3.5,1.25,7.01,1.25,11a6.868,6.868,0,0,0,2.1,4.867Zm-.616,4.881q-.444.088-.891.161a.325.325,0,0,1-.341-.453q.166-.393.3-.8l0-.012a13.072,13.072,0,0,0,.655-2.9A8.118,8.118,0,0,1,0,11C0,6.167,4.477,2.25,10,2.25S20,6.167,20,11s-4.477,8.75-10,8.75a11.325,11.325,0,0,1-2.934-.383,17.09,17.09,0,0,1-4.335,1.381Z" transform="translate(0 -2.25)" fill="#626262" fill-rule="evenodd"/>
    </g>
    <rect id="사각형_46" data-name="사각형 46" width="24" height="24" transform="translate(-2111 -14359)" fill="none"/>
  </g>
</svg>
