<svg xmlns="http://www.w3.org/2000/svg" width="24" height="24" viewBox="0 0 24 24">
  <g id="그룹_433" data-name="그룹 433" transform="translate(0 -0.401)">
    <g id="eyeglasses" transform="translate(2.393 8.303)">
      <path id="패스_555" data-name="패스 555" d="M5.837,17.233A2.393,2.393,0,1,0,3.446,14.84,2.392,2.392,0,0,0,5.837,17.233Zm0,1.2A3.59,3.59,0,1,0,2.25,14.84,3.589,3.589,0,0,0,5.837,18.43Zm9.566-1.2a2.393,2.393,0,1,0-2.391-2.393A2.392,2.392,0,0,0,15.4,17.233Zm0,1.2a3.59,3.59,0,1,0-3.587-3.59A3.589,3.589,0,0,0,15.4,18.43Z" transform="translate(-1.047 -11.25)" fill="#626262" fill-rule="evenodd"/>
      <path id="패스_556" data-name="패스 556" d="M9.573,14.7a1.2,1.2,0,0,0-1.2,1.2H7.18a2.393,2.393,0,1,1,4.787,0h-1.2A1.2,1.2,0,0,0,9.573,14.7ZM0,15.907a.6.6,0,0,1,.6-.6h1.2v1.2H.6A.6.6,0,0,1,0,15.907Zm18.548.6h-1.2V15.3h1.2a.6.6,0,0,1,0,1.2Z" transform="translate(0 -12.308)" fill="#626262" fill-rule="evenodd"/>
    </g>
    <rect id="사각형_1025" data-name="사각형 1025" width="24" height="24" transform="translate(0 0.401)" fill="none" opacity="0.5"/>
  </g>
</svg>
