<svg xmlns="http://www.w3.org/2000/svg" width="24" height="24" viewBox="0 0 24 24">
  <g id="그룹_417" data-name="그룹 417" transform="translate(-832 -513.334)">
    <g id="tv" transform="translate(834.452 517.903)">
      <path id="패스_510" data-name="패스 510" d="M3.065,18.6a.613.613,0,0,1,.613-.613H15.936a.613.613,0,1,1,0,1.226H3.677A.613.613,0,0,1,3.065,18.6ZM17.151,5.726H2.452a1.282,1.282,0,0,0-.738.178.929.929,0,0,0-.312.37,1.79,1.79,0,0,0-.176.69v7.343a1.282,1.282,0,0,0,.178.738.935.935,0,0,0,.37.312,1.794,1.794,0,0,0,.66.175H17.162a1.282,1.282,0,0,0,.738-.178.929.929,0,0,0,.312-.37,1.8,1.8,0,0,0,.175-.66V6.952a1.282,1.282,0,0,0-.178-.738.928.928,0,0,0-.37-.312,1.79,1.79,0,0,0-.691-.176ZM17.162,4.5H2.452A2.4,2.4,0,0,0,0,6.952v7.355a2.4,2.4,0,0,0,2.452,2.452h14.71a2.4,2.4,0,0,0,2.452-2.452V6.952A2.4,2.4,0,0,0,17.162,4.5Z" transform="translate(0 -4.5)" fill="#626262" fill-rule="evenodd"/>
    </g>
    <rect id="사각형_1021" data-name="사각형 1021" width="24" height="24" transform="translate(832 513.334)" fill="none" opacity="0.5"/>
  </g>
</svg>
