<svg xmlns="http://www.w3.org/2000/svg" width="24" height="24" viewBox="0 0 24 24">
  <g id="그룹_426" data-name="그룹 426" transform="translate(0 -0.186)">
    <g id="hdd-rack" transform="translate(2.343 5.202)">
      <path id="패스_527" data-name="패스 527" d="M16.4,21.421H2.343a1.171,1.171,0,0,0-1.171,1.171v1.171a1.171,1.171,0,0,0,1.171,1.171H16.4a1.171,1.171,0,0,0,1.171-1.171V22.593A1.171,1.171,0,0,0,16.4,21.421ZM2.343,20.25A2.343,2.343,0,0,0,0,22.593v1.171a2.343,2.343,0,0,0,2.343,2.343H16.4a2.343,2.343,0,0,0,2.343-2.343V22.593A2.343,2.343,0,0,0,16.4,20.25Z" transform="translate(0 -12.05)" fill="#626262" fill-rule="evenodd"/>
      <path id="패스_528" data-name="패스 528" d="M8.014,25.336a.586.586,0,1,1-.586-.586A.586.586,0,0,1,8.014,25.336Zm-2.343,0a.586.586,0,1,1-.586-.586A.586.586,0,0,1,5.671,25.336Z" transform="translate(-2.157 -14.208)" fill="#626262"/>
      <path id="패스_529" data-name="패스 529" d="M16.4,5.671H2.343A1.171,1.171,0,0,0,1.171,6.843V8.014A1.171,1.171,0,0,0,2.343,9.186H16.4a1.171,1.171,0,0,0,1.171-1.171V6.843A1.171,1.171,0,0,0,16.4,5.671ZM2.343,4.5A2.343,2.343,0,0,0,0,6.843V8.014a2.343,2.343,0,0,0,2.343,2.343H16.4a2.343,2.343,0,0,0,2.343-2.343V6.843A2.343,2.343,0,0,0,16.4,4.5Z" transform="translate(0 -4.5)" fill="#626262" fill-rule="evenodd"/>
      <path id="패스_530" data-name="패스 530" d="M8.014,9.586A.586.586,0,1,1,7.428,9,.586.586,0,0,1,8.014,9.586Zm-2.343,0A.586.586,0,1,1,5.086,9,.586.586,0,0,1,5.671,9.586Z" transform="translate(-2.157 -6.657)" fill="#626262"/>
      <path id="패스_531" data-name="패스 531" d="M6.75,18.093V15.75H7.921v2.343Zm10.542,0V15.75h1.171v2.343Z" transform="translate(-3.236 -9.893)" fill="#626262" fill-rule="evenodd"/>
    </g>
    <rect id="사각형_1029" data-name="사각형 1029" width="24" height="24" transform="translate(0 0.185)" fill="none" opacity="0.5"/>
  </g>
</svg>
