<svg xmlns="http://www.w3.org/2000/svg" width="24" height="24" viewBox="0 0 24 24">
  <g id="그룹_430" data-name="그룹 430" transform="translate(0 0.375)">
    <path id="tools" d="M8.993,2.25A6.543,6.543,0,0,0,5.387,3.318L9.66,7.591a1.4,1.4,0,0,1,.134,2,1.4,1.4,0,0,1-2-.134L3.385,5.188A6.57,6.57,0,0,0,2.249,8.993a6.771,6.771,0,0,0,6.743,6.743,7.278,7.278,0,0,0,1.736-.2L15.2,20.01a3.352,3.352,0,0,0,4.74-4.74L15.469,10.8a7.278,7.278,0,0,0,.2-1.736A6.677,6.677,0,0,0,8.993,2.25Zm5.341,6.743a5.081,5.081,0,0,1-.2,1.4l-.2.735.534.534,4.474,4.474a1.923,1.923,0,0,1,.6,1.4,1.816,1.816,0,0,1-.6,1.4,1.936,1.936,0,0,1-2.8,0l-4.474-4.474-.534-.534-.735.2a5.081,5.081,0,0,1-1.4.2A5.522,5.522,0,0,1,5.186,12.8a5.1,5.1,0,0,1-1.6-3.805,5.562,5.562,0,0,1,.2-1.469l2.938,2.938a2.764,2.764,0,0,0,3.94.134,2.764,2.764,0,0,0-.134-3.94L7.591,3.719a4.306,4.306,0,0,1,1.335-.2,5.522,5.522,0,0,1,3.806,1.535,5.668,5.668,0,0,1,1.6,3.94Z" transform="translate(0.127 0.173)" fill="#626262"/>
    <rect id="사각형_1026" data-name="사각형 1026" width="24" height="24" transform="translate(0 -0.375)" fill="none" opacity="0.5"/>
  </g>
</svg>
