<svg xmlns="http://www.w3.org/2000/svg" width="24" height="24" viewBox="0 0 24 24">
  <g id="그룹_440" data-name="그룹 440" transform="translate(0 -0.141)">
    <g id="hdd-network" transform="translate(2.383 4.799)">
      <path id="패스_557" data-name="패스 557" d="M16.679,5.7H2.383A1.194,1.194,0,0,0,1.191,6.9v1.2a1.194,1.194,0,0,0,1.191,1.2h14.3a1.194,1.194,0,0,0,1.191-1.2V6.9A1.194,1.194,0,0,0,16.679,5.7ZM2.383,4.5A2.389,2.389,0,0,0,0,6.9v1.2a2.389,2.389,0,0,0,2.383,2.4h14.3a2.389,2.389,0,0,0,2.383-2.4V6.9a2.389,2.389,0,0,0-2.383-2.4Z" transform="translate(0 -4.5)" fill="#626262" fill-rule="evenodd"/>
      <path id="패스_558" data-name="패스 558" d="M8.093,9.6a.6.6,0,1,1-.6-.6A.6.6,0,0,1,8.093,9.6Zm-2.4,0A.6.6,0,1,1,5.1,9,.6.6,0,0,1,5.7,9.6Z" transform="translate(-2.105 -6.618)" fill="#626262"/>
      <path id="패스_559" data-name="패스 559" d="M8.935,19.343V15.75h1.191v3.593a1.792,1.792,0,0,1,1.787,1.8h6.552a.6.6,0,0,1,0,1.2H11.913a1.792,1.792,0,0,1-1.787,1.8H8.935a1.792,1.792,0,0,1-1.787-1.8H.6a.6.6,0,0,1,0-1.2H7.148A1.792,1.792,0,0,1,8.935,19.343Zm0,1.2a.6.6,0,0,0-.6.6v1.2a.6.6,0,0,0,.6.6h1.191a.6.6,0,0,0,.6-.6v-1.2a.6.6,0,0,0-.6-.6Z" transform="translate(0 -9.837)" fill="#626262" fill-rule="evenodd"/>
    </g>
    <rect id="사각형_1035" data-name="사각형 1035" width="24" height="24" transform="translate(0 0.141)" fill="none" opacity="0.5"/>
  </g>
</svg>
