<svg xmlns="http://www.w3.org/2000/svg" width="24" height="24" viewBox="0 0 24 24">
  <g id="그룹_423" data-name="그룹 423" transform="translate(0 -0.093)">
    <g id="window" transform="translate(2.343 3.58)">
      <path id="패스_507" data-name="패스 507" d="M16.4,3.421H2.343A1.171,1.171,0,0,0,1.171,4.593V16.307a1.171,1.171,0,0,0,1.171,1.171H16.4a1.171,1.171,0,0,0,1.171-1.171V4.593A1.171,1.171,0,0,0,16.4,3.421ZM2.343,2.25A2.343,2.343,0,0,0,0,4.593V16.307a2.343,2.343,0,0,0,2.343,2.343H16.4a2.343,2.343,0,0,0,2.343-2.343V4.593A2.343,2.343,0,0,0,16.4,2.25Z" transform="translate(0 -2.25)" fill="#626262" fill-rule="evenodd"/>
      <path id="패스_508" data-name="패스 508" d="M18.642,12.425H2.25V11.25H18.642Z" transform="translate(-1.075 -6.566)" fill="#626262" fill-rule="evenodd"/>
      <path id="패스_509" data-name="패스 509" d="M5.675,7.337a.587.587,0,1,1-.587-.587A.587.587,0,0,1,5.675,7.337Zm1.762,0A.587.587,0,1,1,6.85,6.75.587.587,0,0,1,7.437,7.337Zm1.762,0a.587.587,0,1,1-.587-.587A.587.587,0,0,1,9.2,7.337Z" transform="translate(-2.15 -4.4)" fill="#626262"/>
    </g>
    <rect id="사각형_1025" data-name="사각형 1025" width="24" height="24" transform="translate(0 0.093)" fill="none" opacity="0.5"/>
  </g>
</svg>
