<svg xmlns="http://www.w3.org/2000/svg" width="24" height="24" viewBox="0 0 24 24">
  <g id="그룹_422" data-name="그룹 422" transform="translate(-1096 -417)">
    <g id="layout-text-sidebar" transform="translate(1098.418 419.418)">
      <path id="패스_514" data-name="패스 514" d="M16.926,1.209H2.418A1.209,1.209,0,0,0,1.209,2.418V16.926a1.209,1.209,0,0,0,1.209,1.209H16.926a1.209,1.209,0,0,0,1.209-1.209V2.418A1.209,1.209,0,0,0,16.926,1.209ZM2.418,0A2.418,2.418,0,0,0,0,2.418V16.926a2.418,2.418,0,0,0,2.418,2.418H16.926a2.418,2.418,0,0,0,2.418-2.418V2.418A2.418,2.418,0,0,0,16.926,0Z" fill="#626262" fill-rule="evenodd"/>
      <path id="패스_515" data-name="패스 515" d="M16.516,19.152V2.25h1.221v16.9ZM6.75,5.268a.607.607,0,0,1,.61-.6h6.1a.6.6,0,1,1,0,1.207H7.36A.607.607,0,0,1,6.75,5.268Zm0,3.622a.607.607,0,0,1,.61-.6h6.1a.6.6,0,1,1,0,1.207H7.36A.607.607,0,0,1,6.75,8.89Zm0,3.622a.607.607,0,0,1,.61-.6h6.1a.6.6,0,1,1,0,1.207H7.36A.607.607,0,0,1,6.75,12.512Zm0,3.622a.607.607,0,0,1,.61-.6h6.1a.6.6,0,1,1,0,1.207H7.36A.607.607,0,0,1,6.75,16.134Z" transform="translate(-3.168 -1.029)" fill="#626262" fill-rule="evenodd"/>
    </g>
    <rect id="사각형_1024" data-name="사각형 1024" width="24" height="24" transform="translate(1096 417)" fill="none" opacity="0.5"/>
  </g>
</svg>
