<svg xmlns="http://www.w3.org/2000/svg" width="24" height="24" viewBox="0 0 24 24">
  <g id="그룹_424" data-name="그룹 424" transform="translate(-1095 -474)">
    <g id="window" transform="translate(1097.4 477.6)">
      <path id="패스_507" data-name="패스 507" d="M16.8,3.45H2.4a1.2,1.2,0,0,0-1.2,1.2v12a1.2,1.2,0,0,0,1.2,1.2H16.8a1.2,1.2,0,0,0,1.2-1.2v-12A1.2,1.2,0,0,0,16.8,3.45ZM2.4,2.25A2.4,2.4,0,0,0,0,4.65v12a2.4,2.4,0,0,0,2.4,2.4H16.8a2.4,2.4,0,0,0,2.4-2.4v-12a2.4,2.4,0,0,0-2.4-2.4Z" transform="translate(0 -2.25)" fill="#626262" fill-rule="evenodd"/>
      <path id="패스_508" data-name="패스 508" d="M19.043,12.454H2.25v-1.2H19.043Z" transform="translate(-1.046 -6.451)" fill="#626262" fill-rule="evenodd"/>
      <path id="패스_509" data-name="패스 509" d="M5.7,7.352a.6.6,0,1,1-.6-.6A.6.6,0,0,1,5.7,7.352Zm1.806,0a.6.6,0,1,1-.6-.6A.6.6,0,0,1,7.509,7.352Zm1.806,0a.6.6,0,1,1-.6-.6A.6.6,0,0,1,9.315,7.352Z" transform="translate(-2.093 -4.343)" fill="#626262"/>
    </g>
    <rect id="사각형_1025" data-name="사각형 1025" width="24" height="24" transform="translate(1095 474)" fill="none" opacity="0.5"/>
  </g>
</svg>
