<svg xmlns="http://www.w3.org/2000/svg" width="24" height="24" viewBox="0 0 24 24">
  <g id="그룹_427" data-name="그룹 427" transform="translate(0 0.468)">
    <g id="broadcast" transform="translate(2.343 4.544)">
      <path id="패스_536" data-name="패스 536" d="M3.572,5.942a8.2,8.2,0,0,0,0,11.6.586.586,0,1,1-.828.828,9.371,9.371,0,0,1,0-13.253.586.586,0,1,1,.828.828ZM6.057,8.427a4.686,4.686,0,0,0,0,6.625.586.586,0,1,1-.829.829,5.857,5.857,0,0,1,0-8.284.586.586,0,0,1,.829.829ZM12.683,7.6a.586.586,0,0,1,.829,0,5.857,5.857,0,0,1,0,8.284.586.586,0,0,1-.829-.829,4.686,4.686,0,0,0,0-6.625.586.586,0,0,1,0-.829Zm2.485-2.483a.586.586,0,0,1,.828,0,9.371,9.371,0,0,1,0,13.252.586.586,0,1,1-.828-.828,8.2,8.2,0,0,0,0-11.6.586.586,0,0,1,0-.828Z" transform="translate(0.001 -4.942)" fill="#626262" fill-rule="evenodd"/>
      <path id="패스_537" data-name="패스 537" d="M18.214,15.857A2.357,2.357,0,1,1,15.857,13.5,2.357,2.357,0,0,1,18.214,15.857Z" transform="translate(-6.485 -9.059)" fill="#626262"/>
    </g>
    <rect id="사각형_1027" data-name="사각형 1027" width="24" height="24" transform="translate(0 -0.468)" fill="none" opacity="0.5"/>
  </g>
</svg>
