<svg id="그룹_438" data-name="그룹 438" xmlns="http://www.w3.org/2000/svg" width="24" height="24" viewBox="0 0 24 24">
  <g id="journal-arrow-down" transform="translate(3.063 2.302)">
    <path id="패스_564" data-name="패스 564" d="M7.223,2.25H18.115a2.723,2.723,0,0,1,2.723,2.723V18.588a2.723,2.723,0,0,1-2.723,2.723H7.223A2.723,2.723,0,0,1,4.5,18.588H5.862A1.362,1.362,0,0,0,7.223,19.95H18.115a1.362,1.362,0,0,0,1.362-1.362V4.973a1.362,1.362,0,0,0-1.362-1.362H7.223A1.362,1.362,0,0,0,5.862,4.973H4.5A2.723,2.723,0,0,1,7.223,2.25Z" transform="translate(-3.138 -2.25)" fill="#626262"/>
    <path id="패스_565" data-name="패스 565" d="M3.612,10.362V9.681a.681.681,0,0,1,1.362,0v.681h.681a.681.681,0,0,1,0,1.362H2.931a.681.681,0,1,1,0-1.362Zm0,4.085v-.681a.681.681,0,0,1,1.362,0v.681h.681a.681.681,0,1,1,0,1.362H2.931a.681.681,0,1,1,0-1.362Zm0,4.085V17.85a.681.681,0,1,1,1.362,0v.681h.681a.681.681,0,0,1,0,1.362H2.931a.681.681,0,1,1,0-1.362Z" transform="translate(-2.25 -4.915)" fill="#626262"/>
    <path id="패스_566" data-name="패스 566" d="M15.334,9a.681.681,0,0,1,.681.681v7.887l2.241-2.243a.682.682,0,1,1,.964.964l-3.4,3.4a.681.681,0,0,1-.964,0l-3.4-3.4a.682.682,0,0,1,.964-.964l2.241,2.243V9.681A.681.681,0,0,1,15.334,9Z" transform="translate(-5.804 -4.915)" fill="#626262" fill-rule="evenodd"/>
  </g>
  <rect id="사각형_1025" data-name="사각형 1025" width="24" height="24" transform="translate(0 0)" fill="none" opacity="0.5"/>
</svg>
