<svg xmlns="http://www.w3.org/2000/svg" width="24" height="24" viewBox="0 0 24 24">
  <g id="그룹_432" data-name="그룹 432" transform="translate(0 0.189)">
    <g id="clipboard-data" transform="translate(3.514 2.728)">
      <path id="패스_545" data-name="패스 545" d="M5.764,3.375H4.593A2.342,2.342,0,0,0,2.25,5.716V18.009A2.342,2.342,0,0,0,4.593,20.35H16.307a2.342,2.342,0,0,0,2.343-2.341V5.716a2.342,2.342,0,0,0-2.343-2.341H15.135V4.546h1.171a1.171,1.171,0,0,1,1.171,1.171V18.009a1.171,1.171,0,0,1-1.171,1.171H4.593a1.171,1.171,0,0,1-1.171-1.171V5.716A1.171,1.171,0,0,1,4.593,4.546H5.764Z" transform="translate(-2.25 -1.608)" fill="#626262" fill-rule="evenodd"/>
      <path id="패스_546" data-name="패스 546" d="M16.551,1.178H13.017a.589.589,0,0,0-.589.589V2.945a.589.589,0,0,0,.589.589h3.534a.589.589,0,0,0,.589-.589V1.767A.589.589,0,0,0,16.551,1.178ZM13.017,0A1.767,1.767,0,0,0,11.25,1.767V2.945a1.767,1.767,0,0,0,1.767,1.767h3.534a1.767,1.767,0,0,0,1.767-1.767V1.767A1.767,1.767,0,0,0,16.551,0Z" transform="translate(-6.584)" fill="#626262" fill-rule="evenodd"/>
      <path id="패스_547" data-name="패스 547" d="M9,19.389a1.167,1.167,0,1,1,2.333,0v1.178a1.167,1.167,0,1,1-2.333,0Zm7-4.712a1.167,1.167,0,1,1,2.333,0v5.889a1.167,1.167,0,1,1-2.333,0Zm-3.5,2.356a1.167,1.167,0,1,1,2.333,0v3.534a1.167,1.167,0,1,1-2.333,0Z" transform="translate(-5.466 -6.502)" fill="#626262"/>
    </g>
    <rect id="사각형_1028" data-name="사각형 1028" width="24" height="24" transform="translate(0 -0.189)" fill="none" opacity="0.5"/>
  </g>
</svg>
