<svg xmlns="http://www.w3.org/2000/svg" width="24" height="24" viewBox="0 0 24 24">
  <g id="그룹_435" data-name="그룹 435" transform="translate(0 0.399)">
    <g id="file-text" transform="translate(3.761 2.167)">
      <path id="패스_550" data-name="패스 550" d="M7.235,2.25H18.176a2.735,2.735,0,0,1,2.735,2.735V18.661A2.735,2.735,0,0,1,18.176,21.4H7.235A2.735,2.735,0,0,1,4.5,18.661V4.985A2.735,2.735,0,0,1,7.235,2.25Zm0,1.368A1.368,1.368,0,0,0,5.868,4.985V18.661a1.368,1.368,0,0,0,1.368,1.368H18.176a1.368,1.368,0,0,0,1.368-1.368V4.985a1.368,1.368,0,0,0-1.368-1.368Z" transform="translate(-4.5 -2.25)" fill="#626262" fill-rule="evenodd"/>
      <path id="패스_551" data-name="패스 551" d="M10.125,17.93a.684.684,0,0,1,.682-.687H14.9a.687.687,0,0,1,0,1.374H10.807A.684.684,0,0,1,10.125,17.93Zm0-2.748a.684.684,0,0,1,.682-.687h8.179a.687.687,0,0,1,0,1.374H10.807A.684.684,0,0,1,10.125,15.182Zm0-2.748a.684.684,0,0,1,.682-.687h8.179a.687.687,0,0,1,0,1.374H10.807A.684.684,0,0,1,10.125,12.435Zm0-2.748A.684.684,0,0,1,10.807,9h8.179a.687.687,0,0,1,0,1.374H10.807A.684.684,0,0,1,10.125,9.687Z" transform="translate(-6.69 -4.916)" fill="#626262" fill-rule="evenodd"/>
    </g>
    <rect id="사각형_1030" data-name="사각형 1030" width="24" height="24" transform="translate(0 -0.4)" fill="none" opacity="0.5"/>
  </g>
</svg>
