<svg xmlns="http://www.w3.org/2000/svg" width="24" height="24" viewBox="0 0 24 24">
  <g id="그룹_434" data-name="그룹 434" transform="translate(0 0.201)">
    <g id="gear" transform="translate(2.393 2.613)">
      <path id="패스_522" data-name="패스 522" d="M10.577,1.946a1.044,1.044,0,0,0-2,0l-.112.382A2.241,2.241,0,0,1,5.239,3.662L4.89,3.471A1.045,1.045,0,0,0,3.473,4.889l.19.349A2.241,2.241,0,0,1,2.328,8.46l-.382.112a1.044,1.044,0,0,0,0,2l.382.112a2.241,2.241,0,0,1,1.335,3.223l-.191.348A1.045,1.045,0,0,0,4.89,15.676l.349-.19a2.241,2.241,0,0,1,3.222,1.336l.112.381a1.044,1.044,0,0,0,2,0l.112-.382a2.241,2.241,0,0,1,3.223-1.335l.348.191a1.045,1.045,0,0,0,1.417-1.418l-.19-.348a2.241,2.241,0,0,1,1.336-3.223l.381-.112a1.044,1.044,0,0,0,0-2l-.382-.112a2.241,2.241,0,0,1-1.335-3.222l.191-.349A1.045,1.045,0,0,0,14.26,3.472l-.348.19a2.241,2.241,0,0,1-3.223-1.335l-.112-.382ZM7.426,1.607a2.241,2.241,0,0,1,4.3,0l.112.382a1.045,1.045,0,0,0,1.5.622l.349-.191a2.241,2.241,0,0,1,3.04,3.041l-.19.349a1.045,1.045,0,0,0,.622,1.5l.382.112a2.241,2.241,0,0,1,0,4.3l-.382.112a1.045,1.045,0,0,0-.622,1.5l.191.349a2.241,2.241,0,0,1-3.041,3.04l-.349-.19a1.045,1.045,0,0,0-1.5.622l-.112.382a2.241,2.241,0,0,1-4.3,0l-.112-.382a1.045,1.045,0,0,0-1.5-.622l-.349.191a2.241,2.241,0,0,1-3.04-3.041l.19-.349a1.045,1.045,0,0,0-.622-1.5l-.382-.112a2.241,2.241,0,0,1,0-4.3l.382-.112a1.045,1.045,0,0,0,.622-1.5l-.191-.349a2.242,2.242,0,0,1,3.041-3.04l.349.19a1.045,1.045,0,0,0,1.5-.622l.112-.382Z" transform="translate(-0.002 -0.001)" fill="#626262" fill-rule="evenodd"/>
      <path id="패스_523" data-name="패스 523" d="M14.6,11.9a2.7,2.7,0,1,0,2.7,2.7,2.7,2.7,0,0,0-2.7-2.7Zm-3.9,2.7a3.9,3.9,0,1,1,3.9,3.9,3.9,3.9,0,0,1-3.9-3.9Z" transform="translate(-5.024 -5.023)" fill="#626262" fill-rule="evenodd"/>
    </g>
    <rect id="사각형_1031" data-name="사각형 1031" width="24" height="24" transform="translate(0 -0.201)" fill="none" opacity="0.5"/>
  </g>
</svg>
