<svg xmlns="http://www.w3.org/2000/svg" width="24" height="24" viewBox="0 0 24 24">
  <g id="그룹_420" data-name="그룹 420" transform="translate(-1039 -365.825)">
    <g id="clipboard" transform="translate(1042.542 368.362)">
      <path id="패스_498" data-name="패스 498" d="M5.792,3.375H4.612A2.361,2.361,0,0,0,2.25,5.736V18.131a2.361,2.361,0,0,0,2.362,2.361H16.42a2.361,2.361,0,0,0,2.362-2.361V5.736A2.361,2.361,0,0,0,16.42,3.375H15.239v1.18H16.42A1.181,1.181,0,0,1,17.6,5.736V18.131a1.181,1.181,0,0,1-1.181,1.18H4.612a1.181,1.181,0,0,1-1.181-1.18V5.736a1.181,1.181,0,0,1,1.181-1.18H5.792Z" transform="translate(-2.25 -1.599)" fill="#626262" fill-rule="evenodd"/>
      <path id="패스_499" data-name="패스 499" d="M16.579,1.184H13.026a.592.592,0,0,0-.592.592V2.96a.592.592,0,0,0,.592.592h3.553a.592.592,0,0,0,.592-.592V1.776A.592.592,0,0,0,16.579,1.184ZM13.026,0A1.776,1.776,0,0,0,11.25,1.776V2.96a1.776,1.776,0,0,0,1.776,1.776h3.553A1.776,1.776,0,0,0,18.355,2.96V1.776A1.776,1.776,0,0,0,16.579,0Z" transform="translate(-6.537)" fill="#626262" fill-rule="evenodd"/>
    </g>
    <rect id="사각형_1022" data-name="사각형 1022" width="24" height="24" transform="translate(1039 365.825)" fill="none" opacity="0.5"/>
  </g>
</svg>
