<svg xmlns="http://www.w3.org/2000/svg" width="40" height="40" viewBox="0 0 40 40">
  <g id="그룹_2562" data-name="그룹 2562" transform="translate(49 -667)">
    <g id="key" transform="translate(-45 670.001)">
      <path id="패스_598" data-name="패스 598" d="M0,17a8,8,0,0,1,14.929-4H28a1,1,0,0,1,.708.292l3,3a1,1,0,0,1,0,1.416l-3,3a1,1,0,0,1-1.416,0L26,19.413l-1.292,1.294a1,1,0,0,1-1.416,0L22,19.413l-1.292,1.294a1,1,0,0,1-1.416,0L18,19.413l-1.292,1.294A1,1,0,0,1,16,21h-1.07A8,8,0,0,1,0,17Zm8-6a6,6,0,1,0,5.424,8.569,1,1,0,0,1,.9-.57h1.26l1.706-1.707a1,1,0,0,1,1.416,0L20,18.586l1.292-1.294a1,1,0,0,1,1.416,0L24,18.586l1.292-1.294a1,1,0,0,1,1.416,0L28,18.586,29.586,17l-2-2H14.327a1,1,0,0,1-.9-.57A6,6,0,0,0,8,11Z" transform="translate(0)" fill="#fff" fill-rule="evenodd"/>
      <path id="패스_599" data-name="패스 599" d="M8.513,17.757A2.007,2.007,0,1,1,6.507,15.75,2.007,2.007,0,0,1,8.513,17.757Z" transform="translate(-0.487 -0.757)" fill="#fff"/>
    </g>
    <rect id="사각형_1036" data-name="사각형 1036" width="40" height="40" transform="translate(-49 667)" fill="none" opacity="0.5"/>
  </g>
</svg>
