<svg xmlns="http://www.w3.org/2000/svg" width="40" height="40" viewBox="0 0 40 40">
  <g id="그룹_421" data-name="그룹 421" transform="translate(-1096 -366)">
    <g id="truck" transform="translate(1100 373.999)">
      <path id="패스_511" data-name="패스 511" d="M0,7.5a3,3,0,0,1,3-3H21a3,3,0,0,1,3,3v14H22V7.5a1,1,0,0,0-1-1H3a1,1,0,0,0-1,1v14a1,1,0,0,0,1,1v2a3,3,0,0,1-3-3Zm9,15H21v2H9Z" transform="translate(0 -4.5)" fill="#fff" fill-rule="evenodd"/>
      <path id="패스_512" data-name="패스 512" d="M22.251,11.25h4.04a3,3,0,0,1,2.34,1.126l2.962,3.7a3,3,0,0,1,.658,1.876v4.3a3,3,0,0,1-3,3h-2v-2h2a1,1,0,0,0,1-1v-4.3a1,1,0,0,0-.22-.624l-2.96-3.7a1,1,0,0,0-.78-.375h-2.04v9h-2Zm-16,16a2,2,0,1,0-2-2A2,2,0,0,0,6.25,27.25Zm0,2a4,4,0,1,0-4-4A4,4,0,0,0,6.25,29.251Z" transform="translate(-0.25 -5.25)" fill="#fff" fill-rule="evenodd"/>
      <path id="패스_513" data-name="패스 513" d="M26.5,28.5a2,2,0,1,0-2-2A2,2,0,0,0,26.5,28.5Zm0,2a4,4,0,1,0-4-4A4,4,0,0,0,26.5,30.5Z" transform="translate(-2.499 -6.5)" fill="#fff" fill-rule="evenodd"/>
    </g>
    <rect id="사각형_1023" data-name="사각형 1023" width="40" height="40" transform="translate(1096 366)" fill="none" opacity="0.5"/>
  </g>
</svg>
