<svg xmlns="http://www.w3.org/2000/svg" width="40" height="40" viewBox="0 0 40 40">
  <g id="그룹_436" data-name="그룹 436" transform="translate(0 0.111)">
    <g id="__TEMP__SVG__" transform="translate(3.989 3.989)">
      <path id="패스_554" data-name="패스 554" d="M33.752,36.411a2.6,2.6,0,0,0,2.659-2.659c0-2.659-2.659-10.637-15.956-10.637S4.5,31.093,4.5,33.752a2.6,2.6,0,0,0,2.659,2.659ZM7.172,33.9v0Zm.045-.149H33.693l.038-.006.021-.006a7.1,7.1,0,0,0-2.213-4.425c-1.734-1.733-5-3.541-11.084-3.541s-9.35,1.808-11.084,3.542a7.12,7.12,0,0,0-2.213,4.425Zm26.524.149v0ZM20.456,17.8a5.319,5.319,0,1,0-5.319-5.319A5.319,5.319,0,0,0,20.456,17.8Zm7.978-5.319A7.978,7.978,0,1,1,20.456,4.5,7.978,7.978,0,0,1,28.433,12.478Z" transform="translate(-4.5 -4.5)" fill="#fff" fill-rule="evenodd"/>
    </g>
    <rect id="사각형_1032" data-name="사각형 1032" width="40" height="40" transform="translate(0 -0.111)" fill="none" opacity="0.5"/>
  </g>
</svg>
