<svg xmlns="http://www.w3.org/2000/svg" width="40" height="40" viewBox="0 0 40 40">
  <g id="그룹_433" data-name="그룹 433" transform="translate(0 -0.122)">
    <g id="eyeglasses" transform="translate(3.989 13.961)">
      <path id="패스_555" data-name="패스 555" d="M8.229,21.222a3.989,3.989,0,1,0-3.986-3.989A3.987,3.987,0,0,0,8.229,21.222Zm0,1.994A5.983,5.983,0,1,0,2.25,17.233,5.981,5.981,0,0,0,8.229,23.217Zm15.943-1.994a3.989,3.989,0,1,0-3.986-3.989A3.987,3.987,0,0,0,24.171,21.222Zm0,1.994a5.983,5.983,0,1,0-5.979-5.983A5.981,5.981,0,0,0,24.171,23.217Z" transform="translate(-0.244 -11.25)" fill="#fff" fill-rule="evenodd"/>
      <path id="패스_556" data-name="패스 556" d="M15.956,15.506a2,2,0,0,0-1.994,2.006H11.967a3.989,3.989,0,1,1,7.978,0H17.95A2,2,0,0,0,15.956,15.506ZM0,17.511a1,1,0,0,1,1-1H2.992v2.006H1A1,1,0,0,1,0,17.511Zm30.914,1H28.919V16.508h1.994a1,1,0,0,1,0,2.006Z" transform="translate(0 -11.513)" fill="#fff" fill-rule="evenodd"/>
    </g>
    <rect id="사각형_1025" data-name="사각형 1025" width="40" height="40" transform="translate(0 0.122)" fill="none" opacity="0.5"/>
  </g>
</svg>
