<svg xmlns="http://www.w3.org/2000/svg" width="40" height="40" viewBox="0 0 40 40">
  <g id="그룹_417" data-name="그룹 417" transform="translate(-832 -513)">
    <g id="tv" transform="translate(836.03 521.06)">
      <path id="패스_510" data-name="패스 510" d="M5.037,27.672a1.007,1.007,0,0,1,1.007-1.007h20.15a1.007,1.007,0,1,1,0,2.015H6.045A1.007,1.007,0,0,1,5.037,27.672ZM28.192,6.515H4.03a2.107,2.107,0,0,0-1.213.292,1.528,1.528,0,0,0-.512.608A2.942,2.942,0,0,0,2.015,8.55V20.62a2.107,2.107,0,0,0,.292,1.213,1.537,1.537,0,0,0,.608.512A2.95,2.95,0,0,0,4,22.634H28.21a2.107,2.107,0,0,0,1.213-.292,1.528,1.528,0,0,0,.512-.608,2.95,2.95,0,0,0,.288-1.085V8.53a2.107,2.107,0,0,0-.292-1.213,1.525,1.525,0,0,0-.608-.512,2.942,2.942,0,0,0-1.136-.289ZM28.21,4.5H4.03C0,4.5,0,8.53,0,8.53V20.62c0,4.03,4.03,4.03,4.03,4.03H28.21c4.03,0,4.03-4.03,4.03-4.03V8.53C32.24,4.5,28.21,4.5,28.21,4.5Z" transform="translate(0 -4.5)" fill="#fff" fill-rule="evenodd"/>
    </g>
    <rect id="사각형_1021" data-name="사각형 1021" width="40" height="40" transform="translate(832 513)" fill="none" opacity="0.5"/>
  </g>
</svg>
