<svg xmlns="http://www.w3.org/2000/svg" width="40" height="40" viewBox="0 0 40 40">
  <g id="그룹_440" data-name="그룹 440" transform="translate(0 -0.084)">
    <g id="hdd-network" transform="translate(4.001 8.002)">
      <path id="패스_557" data-name="패스 557" d="M28.007,6.511H4A2.006,2.006,0,0,0,2,8.522v2.011a2.006,2.006,0,0,0,2,2.011H28.007a2.006,2.006,0,0,0,2-2.011V8.522A2.006,2.006,0,0,0,28.007,6.511ZM4,4.5A4.012,4.012,0,0,0,0,8.522v2.011a4.012,4.012,0,0,0,4,4.022H28.007a4.012,4.012,0,0,0,4-4.022V8.522a4.012,4.012,0,0,0-4-4.022Z" transform="translate(0 -4.5)" fill="#fff" fill-rule="evenodd"/>
      <path id="패스_558" data-name="패스 558" d="M10.533,10.005A1.005,1.005,0,1,1,9.527,9,1.005,1.005,0,0,1,10.533,10.005Zm-4.022,0A1.005,1.005,0,1,1,5.505,9,1.005,1.005,0,0,1,6.511,10.005Z" transform="translate(-0.478 -5.001)" fill="#fff"/>
      <path id="패스_559" data-name="패스 559" d="M15,21.783V15.75h2v6.033a3.009,3.009,0,0,1,3,3.016h11a1.005,1.005,0,0,1,0,2.011h-11a3.009,3.009,0,0,1-3,3.016H15a3.009,3.009,0,0,1-3-3.016H1A1.005,1.005,0,0,1,1,24.8H12A3.009,3.009,0,0,1,15,21.783Zm0,2.011A1,1,0,0,0,14,24.8V26.81a1,1,0,0,0,1,1.005h2a1,1,0,0,0,1-1.005V24.8a1,1,0,0,0-1-1.005Z" transform="translate(0 -5.82)" fill="#fff" fill-rule="evenodd"/>
    </g>
    <rect id="사각형_1035" data-name="사각형 1035" width="40" height="40" transform="translate(0 0.084)" fill="none" opacity="0.5"/>
  </g>
</svg>
