<svg xmlns="http://www.w3.org/2000/svg" width="40" height="40" viewBox="0 0 40 40">
  <g id="그룹_426" data-name="그룹 426" transform="translate(0 0.382)">
    <g id="hdd-rack" transform="translate(3.935 8.107)">
      <path id="패스_527" data-name="패스 527" d="M27.546,22.218H3.935a1.968,1.968,0,0,0-1.968,1.968v1.968A1.968,1.968,0,0,0,3.935,28.12H27.546a1.968,1.968,0,0,0,1.968-1.968V24.185A1.968,1.968,0,0,0,27.546,22.218ZM3.935,20.25A3.935,3.935,0,0,0,0,24.185v1.968a3.935,3.935,0,0,0,3.935,3.935H27.546a3.935,3.935,0,0,0,3.935-3.935V24.185a3.935,3.935,0,0,0-3.935-3.935Z" transform="translate(0 -6.477)" fill="#fff" fill-rule="evenodd"/>
      <path id="패스_528" data-name="패스 528" d="M10.4,25.734a.984.984,0,1,1-.984-.984A.984.984,0,0,1,10.4,25.734Zm-3.935,0a.984.984,0,1,1-.984-.984A.984.984,0,0,1,6.468,25.734Z" transform="translate(-0.565 -7.042)" fill="#fff"/>
      <path id="패스_529" data-name="패스 529" d="M27.546,6.468H3.935A1.968,1.968,0,0,0,1.968,8.435V10.4A1.968,1.968,0,0,0,3.935,12.37H27.546A1.968,1.968,0,0,0,29.513,10.4V8.435A1.968,1.968,0,0,0,27.546,6.468ZM3.935,4.5A3.935,3.935,0,0,0,0,8.435V10.4a3.935,3.935,0,0,0,3.935,3.935H27.546A3.935,3.935,0,0,0,31.481,10.4V8.435A3.935,3.935,0,0,0,27.546,4.5Z" transform="translate(0 -4.5)" fill="#fff" fill-rule="evenodd"/>
      <path id="패스_530" data-name="패스 530" d="M10.4,9.984A.984.984,0,1,1,9.419,9,.984.984,0,0,1,10.4,9.984Zm-3.935,0A.984.984,0,1,1,5.484,9,.984.984,0,0,1,6.468,9.984Z" transform="translate(-0.565 -5.065)" fill="#fff"/>
      <path id="패스_531" data-name="패스 531" d="M6.75,19.685V15.75H8.718v3.935Zm17.708,0V15.75h1.968v3.935Z" transform="translate(-0.847 -5.912)" fill="#fff" fill-rule="evenodd"/>
    </g>
    <rect id="사각형_1029" data-name="사각형 1029" width="40" height="40" transform="translate(0 -0.382)" fill="none" opacity="0.5"/>
  </g>
</svg>
