<svg xmlns="http://www.w3.org/2000/svg" width="40" height="40" viewBox="0 0 40 40">
  <g id="그룹_430" data-name="그룹 430" transform="translate(0 0.364)">
    <path id="tools" d="M13.577,2.25A10.991,10.991,0,0,0,7.521,4.044L14.7,11.222a2.356,2.356,0,0,1,.224,3.364,2.356,2.356,0,0,1-3.364-.224l-7.4-7.178A11.036,11.036,0,0,0,2.25,13.577,11.372,11.372,0,0,0,13.577,24.9a12.225,12.225,0,0,0,2.916-.336l7.515,7.515a5.63,5.63,0,0,0,7.962-7.962l-7.515-7.515a12.225,12.225,0,0,0,.336-2.916A11.215,11.215,0,0,0,13.577,2.25Zm8.972,11.327a8.534,8.534,0,0,1-.336,2.356l-.336,1.234.9.9,7.515,7.515A3.23,3.23,0,0,1,31.3,27.934a3.05,3.05,0,0,1-1.01,2.354,3.252,3.252,0,0,1-4.71,0l-7.515-7.515-.9-.9-1.234.336a8.534,8.534,0,0,1-2.356.336,9.275,9.275,0,0,1-6.393-2.579,8.557,8.557,0,0,1-2.69-6.392,9.342,9.342,0,0,1,.336-2.467l4.935,4.935a4.642,4.642,0,0,0,6.617.224,4.642,4.642,0,0,0-.224-6.617L11.222,4.717a7.233,7.233,0,0,1,2.243-.336A9.275,9.275,0,0,1,19.858,6.96a9.521,9.521,0,0,1,2.692,6.617Z" transform="translate(1.742 1.955)" fill="#fff"/>
    <rect id="사각형_1026" data-name="사각형 1026" width="40" height="40" transform="translate(0 -0.364)" fill="none" opacity="0.5"/>
  </g>
</svg>
