<svg xmlns="http://www.w3.org/2000/svg" width="40" height="40" viewBox="0 0 40 40">
  <g id="그룹_465" data-name="그룹 465" transform="translate(-388 -1455)">
    <g id="hdd-network" transform="translate(391.333 1462.5)">
      <path id="패스_264" data-name="패스 264" d="M29.167,6.583h-25A2.083,2.083,0,0,0,2.083,8.667V10.75a2.083,2.083,0,0,0,2.083,2.083h25A2.083,2.083,0,0,0,31.25,10.75V8.667A2.083,2.083,0,0,0,29.167,6.583ZM4.167,4.5A4.167,4.167,0,0,0,0,8.667V10.75a4.167,4.167,0,0,0,4.167,4.167h25a4.167,4.167,0,0,0,4.167-4.167V8.667A4.167,4.167,0,0,0,29.167,4.5Z" transform="translate(0 -4.5)" fill="#fff" fill-rule="evenodd"/>
      <path id="패스_265" data-name="패스 265" d="M10.75,10.042A1.042,1.042,0,1,1,9.708,9,1.042,1.042,0,0,1,10.75,10.042Zm-4.167,0A1.042,1.042,0,1,1,5.542,9,1.042,1.042,0,0,1,6.583,10.042Z" transform="translate(-0.333 -4.833)" fill="#fff"/>
      <path id="패스_266" data-name="패스 266" d="M15.625,22V15.75h2.083V22a3.125,3.125,0,0,1,3.125,3.125H32.292a1.042,1.042,0,1,1,0,2.083H20.833a3.125,3.125,0,0,1-3.125,3.125H15.625A3.125,3.125,0,0,1,12.5,27.208H1.042a1.042,1.042,0,1,1,0-2.083H12.5A3.125,3.125,0,0,1,15.625,22Zm0,2.083a1.042,1.042,0,0,0-1.042,1.042v2.083a1.042,1.042,0,0,0,1.042,1.042h2.083a1.042,1.042,0,0,0,1.042-1.042V25.125a1.042,1.042,0,0,0-1.042-1.042Z" transform="translate(0 -5.333)" fill="#fff" fill-rule="evenodd"/>
    </g>
    <rect id="사각형_127" data-name="사각형 127" width="40" height="40" transform="translate(388 1455)" fill="none"/>
  </g>
</svg>
