<svg xmlns="http://www.w3.org/2000/svg" width="40" height="40" viewBox="0 0 40 40">
  <g id="그룹_435" data-name="그룹 435" transform="translate(0 -0.378)">
    <g id="file-text" transform="translate(6.268 3.989)">
      <path id="패스_550" data-name="패스 550" d="M9.059,2.25H27.294a4.559,4.559,0,0,1,4.559,4.559V29.6a4.559,4.559,0,0,1-4.559,4.559H9.059A4.559,4.559,0,0,1,4.5,29.6V6.809A4.559,4.559,0,0,1,9.059,2.25Zm0,2.279A2.279,2.279,0,0,0,6.779,6.809V29.6a2.279,2.279,0,0,0,2.279,2.279H27.294A2.279,2.279,0,0,0,29.573,29.6V6.809a2.279,2.279,0,0,0-2.279-2.279Z" transform="translate(-4.5 -2.25)" fill="#fff" fill-rule="evenodd"/>
      <path id="패스_551" data-name="패스 551" d="M10.125,23.884a1.14,1.14,0,0,1,1.136-1.145h6.816a1.145,1.145,0,0,1,0,2.29H11.261A1.14,1.14,0,0,1,10.125,23.884Zm0-4.58a1.14,1.14,0,0,1,1.136-1.145H24.893a1.145,1.145,0,0,1,0,2.29H11.261A1.14,1.14,0,0,1,10.125,19.3Zm0-4.58a1.14,1.14,0,0,1,1.136-1.145H24.893a1.145,1.145,0,0,1,0,2.29H11.261A1.14,1.14,0,0,1,10.125,14.724Zm0-4.58A1.14,1.14,0,0,1,11.261,9H24.893a1.145,1.145,0,0,1,0,2.29H11.261A1.14,1.14,0,0,1,10.125,10.145Z" transform="translate(-4.401 -2.193)" fill="#fff" fill-rule="evenodd"/>
    </g>
    <rect id="사각형_1030" data-name="사각형 1030" width="40" height="40" transform="translate(0 0.378)" fill="none" opacity="0.5"/>
  </g>
</svg>
