<svg xmlns="http://www.w3.org/2000/svg" width="40" height="40" viewBox="0 0 40 40">
  <g id="그룹_422" data-name="그룹 422" transform="translate(-1096 -417)">
    <g id="layout-text-sidebar" transform="translate(1100.03 421.03)">
      <path id="패스_514" data-name="패스 514" d="M28.21,2.015H4.03A2.015,2.015,0,0,0,2.015,4.03V28.21A2.015,2.015,0,0,0,4.03,30.225H28.21a2.015,2.015,0,0,0,2.015-2.015V4.03A2.015,2.015,0,0,0,28.21,2.015ZM4.03,0A4.03,4.03,0,0,0,0,4.03V28.21a4.03,4.03,0,0,0,4.03,4.03H28.21a4.03,4.03,0,0,0,4.03-4.03V4.03A4.03,4.03,0,0,0,28.21,0Z" fill="#fff" fill-rule="evenodd"/>
      <path id="패스_515" data-name="패스 515" d="M23.027,30.421V2.25h2.035V30.421ZM6.75,7.281A1.012,1.012,0,0,1,7.767,6.274H17.94a1.006,1.006,0,1,1,0,2.012H7.767A1.012,1.012,0,0,1,6.75,7.281Zm0,6.037a1.012,1.012,0,0,1,1.017-1.006H17.94a1.006,1.006,0,1,1,0,2.012H7.767A1.012,1.012,0,0,1,6.75,13.317Zm0,6.037a1.012,1.012,0,0,1,1.017-1.006H17.94a1.006,1.006,0,1,1,0,2.012H7.767A1.012,1.012,0,0,1,6.75,19.354Zm0,6.037a1.012,1.012,0,0,1,1.017-1.006H17.94a1.006,1.006,0,1,1,0,2.012H7.767A1.012,1.012,0,0,1,6.75,25.39Z" transform="translate(-0.781 -0.215)" fill="#fff" fill-rule="evenodd"/>
    </g>
    <rect id="사각형_1024" data-name="사각형 1024" width="40" height="40" transform="translate(1096 417)" fill="none" opacity="0.5"/>
  </g>
</svg>
