<svg xmlns="http://www.w3.org/2000/svg" width="40" height="40" viewBox="0 0 40 40">
  <g id="그룹_427" data-name="그룹 427" transform="translate(0 -0.127)">
    <g id="broadcast" transform="translate(3.935 8.51)">
      <path id="패스_536" data-name="패스 536" d="M6,6.621A13.773,13.773,0,0,0,6,26.1a.984.984,0,1,1-1.391,1.391,15.741,15.741,0,0,1,0-22.261A.984.984,0,1,1,6,6.622ZM10.175,10.8a7.87,7.87,0,0,0,0,11.129.985.985,0,1,1-1.393,1.393,9.838,9.838,0,0,1,0-13.915A.985.985,0,0,1,10.175,10.8ZM21.3,9.4a.984.984,0,0,1,1.393,0,9.838,9.838,0,0,1,0,13.915A.985.985,0,0,1,21.3,21.925a7.87,7.87,0,0,0,0-11.129.984.984,0,0,1,0-1.393Zm4.175-4.171a.984.984,0,0,1,1.391,0,15.741,15.741,0,0,1,0,22.259A.984.984,0,0,1,25.479,26.1a13.773,13.773,0,0,0,0-19.479.984.984,0,0,1,0-1.391Z" transform="translate(0.001 -4.942)" fill="#fff" fill-rule="evenodd"/>
      <path id="패스_537" data-name="패스 537" d="M21.417,17.459A3.959,3.959,0,1,1,17.459,13.5,3.959,3.959,0,0,1,21.417,17.459Z" transform="translate(-1.717 -6.04)" fill="#fff"/>
    </g>
    <rect id="사각형_1027" data-name="사각형 1027" width="40" height="40" transform="translate(0 0.127)" fill="none" opacity="0.5"/>
  </g>
</svg>
