<svg xmlns="http://www.w3.org/2000/svg" width="40" height="40" viewBox="0 0 40 40">
  <g id="그룹_438" data-name="그룹 438" transform="translate(0 -0.133)">
    <g id="journal-arrow-down" transform="translate(5.144 4.001)">
      <path id="패스_564" data-name="패스 564" d="M9.073,2.25H27.363a4.573,4.573,0,0,1,4.573,4.573V29.686a4.573,4.573,0,0,1-4.573,4.573H9.073A4.573,4.573,0,0,1,4.5,29.686H6.786a2.286,2.286,0,0,0,2.286,2.286H27.363a2.286,2.286,0,0,0,2.286-2.286V6.823a2.286,2.286,0,0,0-2.286-2.286H9.073A2.286,2.286,0,0,0,6.786,6.823H4.5A4.573,4.573,0,0,1,9.073,2.25Z" transform="translate(-2.214 -2.25)" fill="#fff"/>
      <path id="패스_565" data-name="패스 565" d="M4.536,11.286V10.143a1.143,1.143,0,1,1,2.286,0v1.143H7.966a1.143,1.143,0,0,1,0,2.286H3.393a1.143,1.143,0,0,1,0-2.286Zm0,6.859V17a1.143,1.143,0,1,1,2.286,0v1.143H7.966a1.143,1.143,0,0,1,0,2.286H3.393a1.143,1.143,0,1,1,0-2.286Zm0,6.859V23.861a1.143,1.143,0,1,1,2.286,0V25H7.966a1.143,1.143,0,0,1,0,2.286H3.393a1.143,1.143,0,1,1,0-2.286Z" transform="translate(-2.25 -2.141)" fill="#fff"/>
      <path id="패스_566" data-name="패스 566" d="M18.109,9a1.143,1.143,0,0,1,1.143,1.143V23.388l3.764-3.766a1.145,1.145,0,1,1,1.619,1.619l-5.716,5.716a1.143,1.143,0,0,1-1.619,0L11.584,21.24A1.145,1.145,0,0,1,13.2,19.622l3.763,3.766V10.143A1.143,1.143,0,0,1,18.109,9Z" transform="translate(-2.105 -2.141)" fill="#fff" fill-rule="evenodd"/>
    </g>
    <rect id="사각형_1025" data-name="사각형 1025" width="40" height="40" transform="translate(0 0.133)" fill="none" opacity="0.5"/>
  </g>
</svg>
