<svg xmlns="http://www.w3.org/2000/svg" width="40" height="40" viewBox="0 0 40 40">
  <g id="그룹_432" data-name="그룹 432" transform="translate(0 0.347)">
    <g id="clipboard-data" transform="translate(5.903 4.237)">
      <path id="패스_545" data-name="패스 545" d="M8.153,3.375H6.185A3.934,3.934,0,0,0,2.25,7.308V27.955a3.934,3.934,0,0,0,3.935,3.933H25.861A3.934,3.934,0,0,0,29.8,27.955V7.308a3.934,3.934,0,0,0-3.935-3.933H23.893V5.341h1.968a1.967,1.967,0,0,1,1.968,1.966V27.955a1.967,1.967,0,0,1-1.968,1.966H6.185a1.967,1.967,0,0,1-1.968-1.966V7.308A1.967,1.967,0,0,1,6.185,5.341H8.153Z" transform="translate(-2.25 -0.407)" fill="#fff" fill-rule="evenodd"/>
      <path id="패스_546" data-name="패스 546" d="M20.153,1.978H14.218a.989.989,0,0,0-.989.989V4.946a.989.989,0,0,0,.989.989h5.935a.989.989,0,0,0,.989-.989V2.968A.989.989,0,0,0,20.153,1.978ZM14.218,0A2.968,2.968,0,0,0,11.25,2.968V4.946a2.968,2.968,0,0,0,2.968,2.968h5.935a2.968,2.968,0,0,0,2.968-2.968V2.968A2.968,2.968,0,0,0,20.153,0Z" transform="translate(-3.413)" fill="#fff" fill-rule="evenodd"/>
      <path id="패스_547" data-name="패스 547" d="M9,23.392a1.959,1.959,0,1,1,3.919,0v1.978a1.959,1.959,0,1,1-3.919,0Zm11.756-7.914a1.959,1.959,0,1,1,3.919,0v9.892a1.959,1.959,0,1,1-3.919,0Zm-5.878,3.957a1.959,1.959,0,1,1,3.919,0v5.935a1.959,1.959,0,1,1-3.919,0Z" transform="translate(-3.065 -1.746)" fill="#fff"/>
    </g>
    <rect id="사각형_1028" data-name="사각형 1028" width="40" height="40" transform="translate(0 -0.347)" fill="none" opacity="0.5"/>
  </g>
</svg>
