<svg xmlns="http://www.w3.org/2000/svg" width="40" height="40" viewBox="0 0 40 40">
  <g id="그룹_442" data-name="그룹 442" transform="translate(0 -0.06)">
    <g id="people" transform="translate(4.001 8.002)">
      <path id="패스_569" data-name="패스 569" d="M30.008,28.506a1.959,1.959,0,0,0,2-2c0-2-2-8-10-8s-10,6-10,8a1.959,1.959,0,0,0,2,2ZM14.014,26.618v0Zm.035-.112H29.964l.028,0,.016,0a6.161,6.161,0,0,0-1.52-3.441c-1.105-1.294-3.045-2.552-6.483-2.552s-5.376,1.26-6.482,2.553A6.143,6.143,0,0,0,14,26.5l.044.008ZM30,26.618v0ZM22.006,14.5a4,4,0,1,0-4-4A4,4,0,0,0,22.006,14.5Zm6-4a6,6,0,1,1-6-6,6,6,0,0,1,6,6ZM13.876,19.064a11.763,11.763,0,0,0-2.461-.494Q10.711,18.5,10,18.5c-8,0-10,6-10,8a1.768,1.768,0,0,0,2,2h8.434a4.477,4.477,0,0,1-.432-2,9.177,9.177,0,0,1,2.181-5.81A10.621,10.621,0,0,1,13.876,19.064ZM9.843,20.5c-3.337.04-5.232,1.28-6.322,2.553A6.122,6.122,0,0,0,2,26.506H8A11.009,11.009,0,0,1,9.843,20.5ZM3,11.5a6,6,0,1,1,6,6A6,6,0,0,1,3,11.5Zm6-4a4,4,0,1,0,4,4A4,4,0,0,0,9,7.5Z" transform="translate(0 -4.5)" fill="#fff" fill-rule="evenodd"/>
    </g>
    <rect id="사각형_1034" data-name="사각형 1034" width="40" height="40" transform="translate(0 0.06)" fill="none" opacity="0.5"/>
  </g>
</svg>
