<svg xmlns="http://www.w3.org/2000/svg" width="40" height="40" viewBox="0 0 40 40">
  <g id="그룹_420" data-name="그룹 420" transform="translate(-1039 -366)">
    <g id="clipboard" transform="translate(1044.948 369.965)">
      <path id="패스_498" data-name="패스 498" d="M8.2,3.375H6.215A3.964,3.964,0,0,0,2.25,7.339v20.81a3.964,3.964,0,0,0,3.965,3.964H26.04a3.964,3.964,0,0,0,3.965-3.964V7.339A3.964,3.964,0,0,0,26.04,3.375H24.058V5.357H26.04a1.982,1.982,0,0,1,1.983,1.982v20.81a1.982,1.982,0,0,1-1.983,1.982H6.215a1.982,1.982,0,0,1-1.983-1.982V7.339A1.982,1.982,0,0,1,6.215,5.357H8.2Z" transform="translate(-2.25 -0.393)" fill="#fff" fill-rule="evenodd"/>
      <path id="패스_499" data-name="패스 499" d="M20.2,1.988H14.232a.994.994,0,0,0-.994.994V4.97a.994.994,0,0,0,.994.994H20.2a.994.994,0,0,0,.994-.994V2.982A.994.994,0,0,0,20.2,1.988ZM14.232,0A2.982,2.982,0,0,0,11.25,2.982V4.97a2.982,2.982,0,0,0,2.982,2.982H20.2A2.982,2.982,0,0,0,23.179,4.97V2.982A2.982,2.982,0,0,0,20.2,0Z" transform="translate(-3.337)" fill="#fff" fill-rule="evenodd"/>
    </g>
    <rect id="사각형_1022" data-name="사각형 1022" width="40" height="40" transform="translate(1039 366)" fill="none" opacity="0.5"/>
  </g>
</svg>
